<?xml version="1.0" encoding="UTF-8" standalone="no"?>
<!-- Created with Inkscape (http://www.inkscape.org/) -->

<svg
   width="168.78688"
   height="120.66582"
   viewBox="0 0 168.78688 120.66582"
   version="1.1"
   id="svg1"
   xml:space="preserve"
   inkscape:version="1.4.2 (ebf0e940d0, 2025-05-08)"
   sodipodi:docname="customer_reviews_cover.svg"
   xmlns:inkscape="http://www.inkscape.org/namespaces/inkscape"
   xmlns:sodipodi="http://sodipodi.sourceforge.net/DTD/sodipodi-0.dtd"
   xmlns="http://www.w3.org/2000/svg"
   xmlns:svg="http://www.w3.org/2000/svg"><sodipodi:namedview
     id="namedview1"
     pagecolor="#ffffff"
     bordercolor="#666666"
     borderopacity="1.0"
     inkscape:showpageshadow="2"
     inkscape:pageopacity="0.0"
     inkscape:pagecheckerboard="0"
     inkscape:deskcolor="#d1d1d1"
     inkscape:document-units="px"
     inkscape:zoom="1.0981934"
     inkscape:cx="124.29504"
     inkscape:cy="232.65482"
     inkscape:window-width="1037"
     inkscape:window-height="1011"
     inkscape:window-x="0"
     inkscape:window-y="32"
     inkscape:window-maximized="0"
     inkscape:current-layer="layer1" /><defs
     id="defs1"><filter
       style="color-interpolation-filters:sRGB"
       inkscape:label="Greyscale"
       id="filter3"
       x="0"
       y="0"
       width="1"
       height="1"><feColorMatrix
         values="0.21 0.72 0.072 0 0 0.21 0.72 0.072 0 0 0.21 0.72 0.072 0 0 0 0 0 1 0 "
         id="feColorMatrix3" /></filter><filter
       style="color-interpolation-filters:sRGB"
       inkscape:label="Greyscale"
       id="filter1"
       x="0"
       y="0"
       width="1"
       height="1"><feColorMatrix
         values="0.21 0.72 0.072 0 0 0.21 0.72 0.072 0 0 0.21 0.72 0.072 0 0 0 0 0 1 0 "
         id="feColorMatrix1" /></filter><filter
       style="color-interpolation-filters:sRGB"
       inkscape:label="Greyscale"
       id="filter2"
       x="0"
       y="0"
       width="1"
       height="1"><feColorMatrix
         values="0.21 0.72 0.072 0 0 0.21 0.72 0.072 0 0 0.21 0.72 0.072 0 0 0 0 0 1 0 "
         id="feColorMatrix2" /></filter><filter
       style="color-interpolation-filters:sRGB"
       inkscape:label="Greyscale"
       id="filter6"
       x="0"
       y="0"
       width="1"
       height="1"><feColorMatrix
         values="0.21 0.72 0.072 0 0 0.21 0.72 0.072 0 0 0.21 0.72 0.072 0 0 0 0 0 1 0 "
         id="feColorMatrix6" /></filter><filter
       style="color-interpolation-filters:sRGB"
       inkscape:label="Greyscale"
       id="filter1-5"
       x="0"
       y="0"
       width="1"
       height="1"><feColorMatrix
         values="0.21 0.72 0.072 0 0 0.21 0.72 0.072 0 0 0.21 0.72 0.072 0 0 0 0 0 1 0 "
         id="feColorMatrix1-3"
         result="fbSourceGraphic" /><feColorMatrix
         result="fbSourceGraphicAlpha"
         in="fbSourceGraphic"
         values="0 0 0 -1 0 0 0 0 -1 0 0 0 0 -1 0 0 0 0 1 0"
         id="feColorMatrix3-5" /><feColorMatrix
         id="feColorMatrix4"
         values="0.21 0.72 0.072 0 0 0.21 0.72 0.072 0 0 0.21 0.72 0.072 0 0 0 0 0 1 0 "
         in="fbSourceGraphic"
         result="fbSourceGraphic" /><feColorMatrix
         result="fbSourceGraphicAlpha"
         in="fbSourceGraphic"
         values="0 0 0 -1 0 0 0 0 -1 0 0 0 0 -1 0 0 0 0 1 0"
         id="feColorMatrix8" /><feColorMatrix
         id="feColorMatrix9"
         values="0.21 0.72 0.072 0 0 0.21 0.72 0.072 0 0 0.21 0.72 0.072 0 0 0 0 0 1 0 "
         in="fbSourceGraphic" /></filter><filter
       style="color-interpolation-filters:sRGB"
       inkscape:label="Greyscale"
       id="filter2-6"
       x="0"
       y="0"
       width="1"
       height="1"><feColorMatrix
         values="0.21 0.72 0.072 0 0 0.21 0.72 0.072 0 0 0.21 0.72 0.072 0 0 0 0 0 1 0 "
         id="feColorMatrix2-2"
         result="fbSourceGraphic" /><feColorMatrix
         result="fbSourceGraphicAlpha"
         in="fbSourceGraphic"
         values="0 0 0 -1 0 0 0 0 -1 0 0 0 0 -1 0 0 0 0 1 0"
         id="feColorMatrix5" /><feColorMatrix
         id="feColorMatrix7"
         values="0.21 0.72 0.072 0 0 0.21 0.72 0.072 0 0 0.21 0.72 0.072 0 0 0 0 0 1 0 "
         in="fbSourceGraphic"
         result="fbSourceGraphic" /><feColorMatrix
         result="fbSourceGraphicAlpha"
         in="fbSourceGraphic"
         values="0 0 0 -1 0 0 0 0 -1 0 0 0 0 -1 0 0 0 0 1 0"
         id="feColorMatrix10" /><feColorMatrix
         id="feColorMatrix11"
         values="0.21 0.72 0.072 0 0 0.21 0.72 0.072 0 0 0.21 0.72 0.072 0 0 0 0 0 1 0 "
         in="fbSourceGraphic" /></filter><filter
       style="color-interpolation-filters:sRGB"
       inkscape:label="Greyscale"
       id="filter3-0"
       x="0"
       y="0"
       width="1"
       height="1"><feColorMatrix
         values="0.21 0.72 0.072 0 0 0.21 0.72 0.072 0 0 0.21 0.72 0.072 0 0 0 0 0 1 0 "
         id="feColorMatrix3-9" /></filter><filter
       style="color-interpolation-filters:sRGB"
       inkscape:label="Greyscale"
       id="filter4"
       x="0"
       y="0"
       width="1"
       height="1"><feColorMatrix
         values="0.21 0.72 0.072 0 0 0.21 0.72 0.072 0 0 0.21 0.72 0.072 0 0 0 0 0 1 0 "
         id="feColorMatrix4-3" /></filter><filter
       style="color-interpolation-filters:sRGB"
       inkscape:label="Greyscale"
       id="filter5"
       x="0"
       y="0"
       width="1"
       height="1"><feColorMatrix
         values="0.21 0.72 0.072 0 0 0.21 0.72 0.072 0 0 0.21 0.72 0.072 0 0 0 0 0 1 0 "
         id="feColorMatrix5-6" /></filter><filter
       style="color-interpolation-filters:sRGB"
       inkscape:label="Greyscale"
       id="filter2-61"
       x="0"
       y="0"
       width="1"
       height="1"><feColorMatrix
         values="0.21 0.72 0.072 0 0 0.21 0.72 0.072 0 0 0.21 0.72 0.072 0 0 0 0 0 1 0 "
         id="feColorMatrix2-8" /></filter><filter
       style="color-interpolation-filters:sRGB"
       inkscape:label="Greyscale"
       id="filter3-7"
       x="0"
       y="0"
       width="1"
       height="1"><feColorMatrix
         values="0.21 0.72 0.072 0 0 0.21 0.72 0.072 0 0 0.21 0.72 0.072 0 0 0 0 0 1 0 "
         id="feColorMatrix3-92" /></filter><filter
       style="color-interpolation-filters:sRGB"
       inkscape:label="Greyscale"
       id="filter4-0"
       x="0"
       y="0"
       width="1"
       height="1"><feColorMatrix
         values="0.21 0.72 0.072 0 0 0.21 0.72 0.072 0 0 0.21 0.72 0.072 0 0 0 0 0 1 0 "
         id="feColorMatrix4-2" /></filter><filter
       style="color-interpolation-filters:sRGB"
       inkscape:label="Greyscale"
       id="filter2-2"
       x="0"
       y="0"
       width="1"
       height="1"><feColorMatrix
         values="0.21 0.72 0.072 0 0 0.21 0.72 0.072 0 0 0.21 0.72 0.072 0 0 0 0 0 1 0 "
         id="feColorMatrix2-28" /></filter><filter
       style="color-interpolation-filters:sRGB"
       inkscape:label="Greyscale"
       id="filter3-9"
       x="0"
       y="0"
       width="1"
       height="1"><feColorMatrix
         values="0.21 0.72 0.072 0 0 0.21 0.72 0.072 0 0 0.21 0.72 0.072 0 0 0 0 0 1 0 "
         id="feColorMatrix3-7" /></filter><filter
       style="color-interpolation-filters:sRGB"
       inkscape:label="Greyscale"
       id="filter4-3"
       x="0"
       y="0"
       width="1"
       height="1"><feColorMatrix
         values="0.21 0.72 0.072 0 0 0.21 0.72 0.072 0 0 0.21 0.72 0.072 0 0 0 0 0 1 0 "
         id="feColorMatrix4-6" /></filter><filter
       style="color-interpolation-filters:sRGB"
       inkscape:label="Greyscale"
       id="filter2-1"
       x="0"
       y="0"
       width="1"
       height="1"><feColorMatrix
         values="0.21 0.72 0.072 0 0 0.21 0.72 0.072 0 0 0.21 0.72 0.072 0 0 0 0 0 1 0 "
         id="feColorMatrix2-9" /></filter><filter
       style="color-interpolation-filters:sRGB"
       inkscape:label="Greyscale"
       id="filter3-4"
       x="0"
       y="0"
       width="1"
       height="1"><feColorMatrix
         values="0.21 0.72 0.072 0 0 0.21 0.72 0.072 0 0 0.21 0.72 0.072 0 0 0 0 0 1 0 "
         id="feColorMatrix3-78" /></filter><filter
       style="color-interpolation-filters:sRGB"
       inkscape:label="Greyscale"
       id="filter4-4"
       x="0"
       y="0"
       width="1"
       height="1"><feColorMatrix
         values="0.21 0.72 0.072 0 0 0.21 0.72 0.072 0 0 0.21 0.72 0.072 0 0 0 0 0 1 0 "
         id="feColorMatrix4-5" /></filter></defs><g
     inkscape:label="Layer 1"
     inkscape:groupmode="layer"
     id="layer1"
     transform="translate(-7.5359395,-3.2232057)"><path
       fill="#ffac33"
       d="m 97.796719,71.381348 c -0.762743,0.263974 -1.602727,0.29253 -2.417362,0.05228 L 76.208707,65.73457 64.661941,82.064455 c -0.984283,1.389244 -2.740104,1.996907 -4.370235,1.495561 -1.626864,-0.491908 -2.753291,-1.975172 -2.794794,-3.671124 L 56.826939,59.419379 37.89408,53.961486 c -1.623233,-0.505849 -2.741527,-1.996156 -2.776131,-3.69661 -0.02952,-1.697984 1.031522,-3.225843 2.632384,-3.792561 l 18.84167,-6.552529 -0.237438,-20.105475 c -0.02262,-1.702487 1.047347,-3.222864 2.654018,-3.778908 1.60667,-0.556044 3.388198,-0.02041 4.424012,1.32931 l 12.13926,15.986435 18.957558,-6.529208 c 1.61437,-0.546021 3.395388,3.53e-4 4.415447,1.353415 1.025789,1.35742 1.06789,3.220179 0.102749,4.621827 L 87.538697,48.790508 99.664924,65.295182 c 1.019476,1.357491 1.045236,3.221678 0.07422,4.612675 -0.489171,0.706279 -1.174009,1.207555 -1.942422,1.473491 z"
       id="path1"
       style="stroke-width:1.99785" /><path
       fill="#ffac33"
       d="m 125.52341,77.010168 c -0.76377,-0.260957 -1.44368,-0.755055 -1.93826,-1.445511 L 111.97399,59.28049 92.825995,65.055199 c -1.630531,0.490074 -3.388737,-0.11065 -4.365776,-1.508541 -0.980258,-1.388432 -0.956214,-3.250779 0.05411,-4.613575 L 100.5753,42.380654 89.003318,26.432894 c -0.968824,-1.397193 -0.934033,-3.260091 0.0845,-4.622195 1.021024,-1.35703 2.797335,-1.909193 4.408173,-1.371486 l 18.886779,6.421356 12.17813,-15.999365 c 1.02925,-1.3563249 2.80798,-1.8971099 4.41683,-1.3474139 1.60886,0.5496949 2.68418,2.0677309 2.67081,3.7690449 l -0.26012,20.07138 18.9638,6.511016 c 1.60876,0.562334 2.67708,2.088525 2.64924,3.782787 -0.026,1.701222 -1.13845,3.195916 -2.76152,3.707542 l -18.91115,5.532614 -0.58914,20.471996 c -0.031,1.697392 -1.15724,3.183162 -2.7784,3.682767 -0.8201,0.25605 -1.66839,0.230123 -2.43785,-0.03278 z"
       id="path1-2"
       style="stroke-width:1.99785;fill:#ff9701;fill-opacity:1" /><path
       fill="#ffac33"
       d="m 127.37263,86.821012 c -0.50836,0.626924 -1.2066,1.094719 -2.02526,1.320868 l -19.28946,5.283021 -1.183,19.964809 c -0.1023,1.69951 -1.27252,3.14268 -2.92159,3.57771 -1.64131,0.44128 -3.381115,-0.22354 -4.311882,-1.64186 L 86.263852,98.296169 67.303688,103.65844 c -1.645593,0.42754 -3.38221,-0.24756 -4.309494,-1.67335 -0.921669,-1.42639 -0.827373,-3.284146 0.232871,-4.610721 L 75.767858,81.86074 64.949809,64.912097 c -0.918185,-1.433848 -0.812354,-3.289961 0.258452,-4.61055 1.07081,-1.320581 2.866561,-1.806414 4.458891,-1.207157 l 18.750341,7.166076 12.651517,-15.555018 c 1.08264,-1.316137 2.88362,-1.792589 4.46435,-1.182169 1.58789,0.611107 2.60725,2.170764 2.52774,3.870707 l -1.32857,19.659007 19.01292,7.613045 c 1.58255,0.614493 2.58879,2.184002 2.49868,3.878001 -0.0425,0.858088 -0.35936,1.645396 -0.87149,2.276988 z"
       id="path1-0"
       style="stroke-width:1.99785;fill:#ffc777;fill-opacity:1" /></g></svg>
