<?xml version="1.0" encoding="UTF-8" standalone="no"?>
<!-- Created with Inkscape (http://www.inkscape.org/) -->

<svg
   width="168.78688"
   height="120.66582"
   viewBox="0 0 168.78688 120.66582"
   version="1.1"
   id="svg1"
   xml:space="preserve"
   inkscape:version="1.4 (e7c3feb100, 2024-10-09)"
   sodipodi:docname="drawing.svg"
   xmlns:inkscape="http://www.inkscape.org/namespaces/inkscape"
   xmlns:sodipodi="http://sodipodi.sourceforge.net/DTD/sodipodi-0.dtd"
   xmlns="http://www.w3.org/2000/svg"
   xmlns:svg="http://www.w3.org/2000/svg"><sodipodi:namedview
     id="namedview1"
     pagecolor="#ffffff"
     bordercolor="#666666"
     borderopacity="1.0"
     inkscape:showpageshadow="2"
     inkscape:pageopacity="0.0"
     inkscape:pagecheckerboard="0"
     inkscape:deskcolor="#d1d1d1"
     inkscape:document-units="px"
     inkscape:zoom="4.4055556"
     inkscape:cx="82.622951"
     inkscape:cy="86.822194"
     inkscape:window-width="1251"
     inkscape:window-height="1011"
     inkscape:window-x="26"
     inkscape:window-y="23"
     inkscape:window-maximized="0"
     inkscape:current-layer="layer1" /><defs
     id="defs1"><filter
       style="color-interpolation-filters:sRGB"
       inkscape:label="Greyscale"
       id="filter3"
       x="0"
       y="0"
       width="1"
       height="1"><feColorMatrix
         values="0.21 0.72 0.072 0 0 0.21 0.72 0.072 0 0 0.21 0.72 0.072 0 0 0 0 0 1 0 "
         id="feColorMatrix3" /></filter><filter
       style="color-interpolation-filters:sRGB"
       inkscape:label="Greyscale"
       id="filter1"
       x="0"
       y="0"
       width="1"
       height="1"><feColorMatrix
         values="0.21 0.72 0.072 0 0 0.21 0.72 0.072 0 0 0.21 0.72 0.072 0 0 0 0 0 1 0 "
         id="feColorMatrix1" /></filter><filter
       style="color-interpolation-filters:sRGB"
       inkscape:label="Greyscale"
       id="filter2"
       x="0"
       y="0"
       width="1"
       height="1"><feColorMatrix
         values="0.21 0.72 0.072 0 0 0.21 0.72 0.072 0 0 0.21 0.72 0.072 0 0 0 0 0 1 0 "
         id="feColorMatrix2" /></filter><filter
       style="color-interpolation-filters:sRGB"
       inkscape:label="Greyscale"
       id="filter6"
       x="0"
       y="0"
       width="1"
       height="1"><feColorMatrix
         values="0.21 0.72 0.072 0 0 0.21 0.72 0.072 0 0 0.21 0.72 0.072 0 0 0 0 0 1 0 "
         id="feColorMatrix6" /></filter><filter
       style="color-interpolation-filters:sRGB"
       inkscape:label="Greyscale"
       id="filter1-5"
       x="0"
       y="0"
       width="1"
       height="1"><feColorMatrix
         values="0.21 0.72 0.072 0 0 0.21 0.72 0.072 0 0 0.21 0.72 0.072 0 0 0 0 0 1 0 "
         id="feColorMatrix1-3"
         result="fbSourceGraphic" /><feColorMatrix
         result="fbSourceGraphicAlpha"
         in="fbSourceGraphic"
         values="0 0 0 -1 0 0 0 0 -1 0 0 0 0 -1 0 0 0 0 1 0"
         id="feColorMatrix3-5" /><feColorMatrix
         id="feColorMatrix4"
         values="0.21 0.72 0.072 0 0 0.21 0.72 0.072 0 0 0.21 0.72 0.072 0 0 0 0 0 1 0 "
         in="fbSourceGraphic"
         result="fbSourceGraphic" /><feColorMatrix
         result="fbSourceGraphicAlpha"
         in="fbSourceGraphic"
         values="0 0 0 -1 0 0 0 0 -1 0 0 0 0 -1 0 0 0 0 1 0"
         id="feColorMatrix8" /><feColorMatrix
         id="feColorMatrix9"
         values="0.21 0.72 0.072 0 0 0.21 0.72 0.072 0 0 0.21 0.72 0.072 0 0 0 0 0 1 0 "
         in="fbSourceGraphic" /></filter><filter
       style="color-interpolation-filters:sRGB"
       inkscape:label="Greyscale"
       id="filter2-6"
       x="0"
       y="0"
       width="1"
       height="1"><feColorMatrix
         values="0.21 0.72 0.072 0 0 0.21 0.72 0.072 0 0 0.21 0.72 0.072 0 0 0 0 0 1 0 "
         id="feColorMatrix2-2"
         result="fbSourceGraphic" /><feColorMatrix
         result="fbSourceGraphicAlpha"
         in="fbSourceGraphic"
         values="0 0 0 -1 0 0 0 0 -1 0 0 0 0 -1 0 0 0 0 1 0"
         id="feColorMatrix5" /><feColorMatrix
         id="feColorMatrix7"
         values="0.21 0.72 0.072 0 0 0.21 0.72 0.072 0 0 0.21 0.72 0.072 0 0 0 0 0 1 0 "
         in="fbSourceGraphic"
         result="fbSourceGraphic" /><feColorMatrix
         result="fbSourceGraphicAlpha"
         in="fbSourceGraphic"
         values="0 0 0 -1 0 0 0 0 -1 0 0 0 0 -1 0 0 0 0 1 0"
         id="feColorMatrix10" /><feColorMatrix
         id="feColorMatrix11"
         values="0.21 0.72 0.072 0 0 0.21 0.72 0.072 0 0 0.21 0.72 0.072 0 0 0 0 0 1 0 "
         in="fbSourceGraphic" /></filter><filter
       style="color-interpolation-filters:sRGB"
       inkscape:label="Greyscale"
       id="filter3-0"
       x="0"
       y="0"
       width="1"
       height="1"><feColorMatrix
         values="0.21 0.72 0.072 0 0 0.21 0.72 0.072 0 0 0.21 0.72 0.072 0 0 0 0 0 1 0 "
         id="feColorMatrix3-9" /></filter><filter
       style="color-interpolation-filters:sRGB"
       inkscape:label="Greyscale"
       id="filter4"
       x="0"
       y="0"
       width="1"
       height="1"><feColorMatrix
         values="0.21 0.72 0.072 0 0 0.21 0.72 0.072 0 0 0.21 0.72 0.072 0 0 0 0 0 1 0 "
         id="feColorMatrix4-3" /></filter><filter
       style="color-interpolation-filters:sRGB"
       inkscape:label="Greyscale"
       id="filter5"
       x="0"
       y="0"
       width="1"
       height="1"><feColorMatrix
         values="0.21 0.72 0.072 0 0 0.21 0.72 0.072 0 0 0.21 0.72 0.072 0 0 0 0 0 1 0 "
         id="feColorMatrix5-6" /></filter><filter
       style="color-interpolation-filters:sRGB"
       inkscape:label="Greyscale"
       id="filter2-61"
       x="0"
       y="0"
       width="1"
       height="1"><feColorMatrix
         values="0.21 0.72 0.072 0 0 0.21 0.72 0.072 0 0 0.21 0.72 0.072 0 0 0 0 0 1 0 "
         id="feColorMatrix2-8" /></filter><filter
       style="color-interpolation-filters:sRGB"
       inkscape:label="Greyscale"
       id="filter3-7"
       x="0"
       y="0"
       width="1"
       height="1"><feColorMatrix
         values="0.21 0.72 0.072 0 0 0.21 0.72 0.072 0 0 0.21 0.72 0.072 0 0 0 0 0 1 0 "
         id="feColorMatrix3-92" /></filter><filter
       style="color-interpolation-filters:sRGB"
       inkscape:label="Greyscale"
       id="filter4-0"
       x="0"
       y="0"
       width="1"
       height="1"><feColorMatrix
         values="0.21 0.72 0.072 0 0 0.21 0.72 0.072 0 0 0.21 0.72 0.072 0 0 0 0 0 1 0 "
         id="feColorMatrix4-2" /></filter><filter
       style="color-interpolation-filters:sRGB"
       inkscape:label="Greyscale"
       id="filter2-2"
       x="0"
       y="0"
       width="1"
       height="1"><feColorMatrix
         values="0.21 0.72 0.072 0 0 0.21 0.72 0.072 0 0 0.21 0.72 0.072 0 0 0 0 0 1 0 "
         id="feColorMatrix2-28" /></filter><filter
       style="color-interpolation-filters:sRGB"
       inkscape:label="Greyscale"
       id="filter3-9"
       x="0"
       y="0"
       width="1"
       height="1"><feColorMatrix
         values="0.21 0.72 0.072 0 0 0.21 0.72 0.072 0 0 0.21 0.72 0.072 0 0 0 0 0 1 0 "
         id="feColorMatrix3-7" /></filter><filter
       style="color-interpolation-filters:sRGB"
       inkscape:label="Greyscale"
       id="filter4-3"
       x="0"
       y="0"
       width="1"
       height="1"><feColorMatrix
         values="0.21 0.72 0.072 0 0 0.21 0.72 0.072 0 0 0.21 0.72 0.072 0 0 0 0 0 1 0 "
         id="feColorMatrix4-6" /></filter><filter
       style="color-interpolation-filters:sRGB"
       inkscape:label="Greyscale"
       id="filter2-1"
       x="0"
       y="0"
       width="1"
       height="1"><feColorMatrix
         values="0.21 0.72 0.072 0 0 0.21 0.72 0.072 0 0 0.21 0.72 0.072 0 0 0 0 0 1 0 "
         id="feColorMatrix2-9" /></filter><filter
       style="color-interpolation-filters:sRGB"
       inkscape:label="Greyscale"
       id="filter3-4"
       x="0"
       y="0"
       width="1"
       height="1"><feColorMatrix
         values="0.21 0.72 0.072 0 0 0.21 0.72 0.072 0 0 0.21 0.72 0.072 0 0 0 0 0 1 0 "
         id="feColorMatrix3-78" /></filter><filter
       style="color-interpolation-filters:sRGB"
       inkscape:label="Greyscale"
       id="filter4-4"
       x="0"
       y="0"
       width="1"
       height="1"><feColorMatrix
         values="0.21 0.72 0.072 0 0 0.21 0.72 0.072 0 0 0.21 0.72 0.072 0 0 0 0 0 1 0 "
         id="feColorMatrix4-5" /></filter></defs><g
     inkscape:label="Layer 1"
     inkscape:groupmode="layer"
     id="layer1"
     transform="translate(-7.5359395,-3.2232057)"><g
       id="g1"
       transform="matrix(1.3026854,0,0,1.3342044,63.35368,6.7674236)"><path
         fill="#FFCC4D"
         d="M 9.9964816,1.8772306 C 18.900729,-2.5429344 29.702604,1.0922336 34.122769,9.9964806 38.542934,18.900729 34.907766,29.702603 26.003519,34.122769 17.099271,38.542934 6.2973966,34.907766 1.8772306,26.003518 -2.5429344,17.099271 1.0922336,6.2973966 9.9964816,1.8772306"
         id="path1"
         style="fill:#009392;fill-opacity:1" /><path
         fill="#664500"
         d="m 18,21.849 c -2.966,0 -4.935,-0.346 -7.369,-0.819 -0.557,-0.106 -1.638,0 -1.638,1.638 0,3.275 3.763,7.369 9.007,7.369 5.244,0 9.007,-4.094 9.007,-7.369 0,-1.638 -1.082,-1.745 -1.638,-1.638 -2.434,0.473 -4.402,0.819 -7.369,0.819"
         id="path2"
         style="filter:url(#filter3)" /><path
         fill="#DD2E44"
         d="M 16.65,3.281 C 15.791,0.85 13.126,-0.426 10.694,0.431 9.218,0.951 8.173,2.142 7.766,3.535 6.575,2.706 5.015,2.435 3.541,2.955 1.111,3.813 -0.167,6.48 0.692,8.911 0.814,9.255 0.976,9.574 1.164,9.869 3.115,13.451 8.752,15.969 12.165,16 14.802,13.833 17.611,8.335 16.883,4.323 16.845,3.975 16.77,3.625 16.65,3.281 Z m 2.7,0 c 0.859,-2.431 3.525,-3.707 5.956,-2.85 1.476,0.52 2.521,1.711 2.929,3.104 1.191,-0.829 2.751,-1.1 4.225,-0.58 2.43,0.858 3.707,3.525 2.85,5.956 C 35.187,9.255 35.026,9.574 34.837,9.869 32.886,13.451 27.249,15.969 23.835,16 21.198,13.833 18.39,8.335 19.118,4.323 19.155,3.975 19.23,3.625 19.35,3.281 Z"
         id="path3"
         style="fill:#e9ebe5;fill-opacity:1" /></g><g
       id="g2"
       transform="matrix(1.1954603,0,0,1.1954603,22.517023,74.723833)"><path
         fill="#ffcc4d"
         d="M 36,18 C 36,27.941 27.941,36 18,36 8.059,36 0,27.941 0,18 0,8.059 8.059,0 18,0 27.941,0 36,8.059 36,18"
         id="path1-3"
         style="display:inline;fill:#cf597e;fill-opacity:1" /><path
         fill="#664500"
         d="m 22,27 c 0,2.763 -1.791,3 -4,3 -2.21,0 -4,-0.237 -4,-3 0,-2.761 1.79,-6 4,-6 2.209,0 4,3.239 4,6 z M 30,15 C 29.876,15 29.75,14.977 29.629,14.928 24.4,12.837 22.257,9.687 22.168,9.554 21.861,9.094 21.985,8.473 22.445,8.167 c 0.459,-0.306 1.077,-0.184 1.385,0.274 0.019,0.027 1.93,2.785 6.541,4.629 0.513,0.206 0.763,0.787 0.558,1.3 C 30.772,14.762 30.396,15 30,15 Z M 6,15 C 5.603,15 5.228,14.762 5.071,14.371 4.866,13.858 5.115,13.276 5.628,13.071 10.24,11.227 12.151,8.469 12.17,8.442 12.478,7.986 13.099,7.865 13.557,8.172 14.014,8.48 14.138,9.097 13.832,9.555 13.743,9.688 11.6,12.838 6.372,14.929 6.25,14.977 6.124,15 6,15 Z"
         id="path2-6"
         style="filter:url(#filter2)" /><path
         fill="#5DADEC"
         d="m 24,16 h 4 V 35 L 24,34.954 Z M 8,35 12,34.954 V 16 H 8 Z"
         id="path3-7"
         style="fill:#e9ebe5;fill-opacity:1" /><path
         fill="#664500"
         d="m 14.999,18 c -0.15,0 -0.303,-0.034 -0.446,-0.105 -3.512,-1.756 -7.07,-0.018 -7.105,0 -0.495,0.249 -1.095,0.046 -1.342,-0.447 -0.247,-0.494 -0.047,-1.095 0.447,-1.342 0.182,-0.09 4.498,-2.197 8.895,0 0.494,0.247 0.694,0.848 0.447,1.342 C 15.719,17.798 15.366,18 14.999,18 Z m 14,0 c -0.15,0 -0.303,-0.034 -0.446,-0.105 -3.513,-1.756 -7.07,-0.018 -7.105,0 -0.494,0.248 -1.094,0.047 -1.342,-0.447 -0.247,-0.494 -0.047,-1.095 0.447,-1.342 0.182,-0.09 4.501,-2.196 8.895,0 0.494,0.247 0.694,0.848 0.447,1.342 C 29.719,17.798 29.366,18 28.999,18 Z"
         id="path4"
         style="filter:url(#filter1)" /><ellipse
         fill="#5DADEC"
         cx="18"
         cy="34"
         rx="18"
         ry="2"
         id="ellipse4"
         style="fill:#e9ebe5;fill-opacity:1" /><ellipse
         fill="#E75A70"
         cx="18"
         cy="27"
         rx="3"
         ry="2"
         id="ellipse5"
         style="fill:#cf597e;fill-opacity:1" /></g><g
       id="g3"
       transform="matrix(1.5863808,0,0,1.5863808,113.31148,14.118539)"><circle
         cx="18"
         cy="18"
         r="18"
         fill="#FFCC4D"
         id="circle1"
         style="fill:#e88471;fill-opacity:1" /><path
         fill="#65471b"
         d="m 20.996,28.477 a 0.978,0.978 0 0 1 -0.309,-0.049 8.647,8.647 0 0 0 -5.375,0 1,1 0 1 1 -0.617,-1.902 10.633,10.633 0 0 1 6.609,0 c 0.525,0.172 0.813,0.736 0.643,1.26 a 1.002,1.002 0 0 1 -0.951,0.691 z M 28.994,10.011 A 1.005,1.005 0 0 0 28.011,9 C 27.944,8.999 26.358,8.944 24.707,7.293 A 1,1 0 1 0 23.293,8.707 C 25.56,10.974 27.901,11 28,11 a 0.995,0.995 0 0 0 0.994,-0.989 z M 12.707,8.707 a 0.998,0.998 0 0 0 -0.324,-1.63 1,1 0 0 0 -1.09,0.216 C 9.652,8.934 8.075,8.998 7.99,9 A 1.0000125,1.0000125 0 0 0 8,11 c 0.099,0 2.44,-0.026 4.707,-2.293 z"
         id="path1-9"
         style="filter:url(#filter6)" /><path
         fill="#ffffff"
         d="m 24.5,23 a 5.5,5.5 0 1 0 0,-11 5.5,5.5 0 0 0 0,11 z"
         id="path2-1" /><path
         fill="#292F33"
         d="m 24.5,22 a 5,5 0 1 0 0,-10 5,5 0 0 0 0,10 z"
         id="path3-2"
         style="fill:#4b4b4b;fill-opacity:1;filter:url(#filter2-6)" /><path
         fill="#ffffff"
         d="m 24.337,16.836 c 1.044,-1.046 1.23,-2.552 0.417,-3.364 -0.813,-0.813 -2.32,-0.625 -3.363,0.42 -1.045,1.046 -1.231,2.552 -0.418,3.364 0.814,0.813 2.32,0.625 3.364,-0.42 z m 3.288,2.845 c 0.458,-0.459 0.54,-1.12 0.183,-1.477 -0.357,-0.357 -1.019,-0.274 -1.478,0.185 -0.458,0.459 -0.54,1.12 -0.183,1.477 0.357,0.357 1.019,0.275 1.478,-0.184 z M 11.5,23 a 5.5,5.5 0 1 0 0,-11 5.5,5.5 0 0 0 0,11 z"
         id="path4-7" /><path
         fill="#292F33"
         d="m 11.5,22 a 5,5 0 1 0 0,-10 5,5 0 0 0 0,10 z"
         id="path5"
         style="fill:#4b4b4b;fill-opacity:1;filter:url(#filter1-5)" /><path
         fill="#ffffff"
         d="m 11.337,16.836 c 1.044,-1.046 1.23,-2.552 0.417,-3.364 -0.813,-0.813 -2.32,-0.625 -3.363,0.42 -1.045,1.046 -1.231,2.552 -0.418,3.364 0.814,0.813 2.32,0.625 3.364,-0.42 z m 3.287,2.845 c 0.46,-0.459 0.541,-1.12 0.184,-1.477 -0.357,-0.357 -1.019,-0.274 -1.478,0.185 -0.458,0.459 -0.54,1.12 -0.183,1.477 0.357,0.357 1.019,0.275 1.477,-0.184 z"
         id="path6" /></g><g
       id="g4"
       transform="matrix(1.4791929,0,0,1.4791929,118.75914,66.098356)"><circle
         fill="#FFCC4D"
         cx="18"
         cy="18"
         r="18"
         id="circle1-0"
         style="fill:#39b185;fill-opacity:1" /><path
         fill="#664500"
         d="m 18,21 c -3.623,0 -6.027,-0.422 -9,-1 -0.679,-0.131 -2,0 -2,2 0,4 4.595,9 11,9 6.404,0 11,-5 11,-9 0,-2 -1.321,-2.132 -2,-2 -2.973,0.578 -5.377,1 -9,1 z"
         id="path1-6"
         style="filter:url(#filter5)" /><path
         fill="#ffffff"
         d="m 9,22 c 0,0 3,1 9,1 6,0 9,-1 9,-1 0,0 -2,4 -9,4 -7,0 -9,-4 -9,-4 z"
         id="path2-2" /><ellipse
         fill="#664500"
         cx="12"
         cy="13.5"
         rx="2.5"
         ry="3.5"
         id="ellipse2"
         style="filter:url(#filter4)" /><ellipse
         fill="#664500"
         cx="24"
         cy="13.5"
         rx="2.5"
         ry="3.5"
         id="ellipse3"
         style="filter:url(#filter3-0)" /></g><g
       id="g5"
       transform="matrix(1.3404792,0,0,1.3404792,79.944514,58.153844)"><path
         fill="#FFCC4D"
         d="M 36,18 C 36,27.941 27.941,36 18,36 8.06,36 0,27.941 0,18 0,8.06 8.06,0 18,0 27.941,0 36,8.06 36,18"
         id="path1-37"
         style="fill:#e9e29c;fill-opacity:1" /><ellipse
         fill="#664500"
         cx="11.5"
         cy="16.5"
         rx="2.5"
         ry="3.5"
         id="ellipse1"
         style="filter:url(#filter3-7)" /><ellipse
         fill="#664500"
         cx="24.5"
         cy="16.5"
         rx="2.5"
         ry="3.5"
         id="ellipse2-5"
         style="filter:url(#filter2-61)" /><path
         fill="#664500"
         d="M 25,26 H 11 c -0.552,0 -1,-0.447 -1,-1 0,-0.553 0.448,-1 1,-1 h 14 c 0.553,0 1,0.447 1,1 0,0.553 -0.447,1 -1,1 z"
         id="path2-9"
         style="filter:url(#filter4-0)" /></g><g
       id="g6"
       transform="matrix(1.3593947,0,0,1.3593947,21.18689,65.531327)"><circle
         fill="#FFCC4D"
         cx="25.490541"
         cy="-3.7906682"
         r="18"
         id="circle1-1"
         style="fill:#9ccb86;fill-opacity:1" /><path
         fill="#664500"
         d="m 18.005542,1.8303317 c 0.045,0.179 1.168,4.379 7.485,4.379 6.318,0 7.44,-4.2 7.485,-4.379 0.055,-0.217 -0.043,-0.442 -0.237,-0.554 -0.195,-0.111 -0.439,-0.078 -0.6,0.077 -0.019,0.019 -1.954,1.856 -6.648,1.856 -4.694,0 -6.63,-1.837 -6.648,-1.855 -0.096,-0.095 -0.224,-0.145 -0.352,-0.145 -0.084,0 -0.169,0.021 -0.246,0.064 -0.196,0.112 -0.294,0.339 -0.239,0.557 z"
         id="path1-2"
         style="filter:url(#filter4-3)" /><ellipse
         fill="#664500"
         cx="19.490541"
         cy="-8.2906685"
         rx="2.5"
         ry="3.5"
         id="ellipse1-9"
         style="filter:url(#filter3-9)" /><ellipse
         fill="#664500"
         cx="31.490541"
         cy="-8.2906685"
         rx="2.5"
         ry="3.5"
         id="ellipse2-3"
         style="filter:url(#filter2-2)" /></g><g
       id="g7"
       transform="matrix(1.1197982,0,0,1.1197982,10.259773,4.5851225)"><path
         fill="#FFCC4D"
         d="M 36,18 C 36,27.941 27.941,36 18,36 8.059,36 0,27.941 0,18 0,8.059 8.059,0 18,0 27.941,0 36,8.059 36,18"
         id="path1-0"
         style="fill:#eeb479;fill-opacity:1" /><ellipse
         fill="#65471b"
         cx="11.5"
         cy="15.5"
         rx="2.5"
         ry="3.5"
         id="ellipse1-3"
         style="filter:url(#filter3-4)" /><ellipse
         fill="#65471b"
         cx="24.5"
         cy="15.5"
         rx="2.5"
         ry="3.5"
         id="ellipse2-6"
         style="filter:url(#filter2-1)" /><path
         fill="#65471b"
         d="m 11.209,27.978 14,-3 A 1.001,1.001 0 0 0 24.79,23.021 l -14,3 a 1.001,1.001 0 0 0 0.419,1.957 z"
         id="path2-10"
         style="filter:url(#filter4-4)" /></g></g></svg>
