<?xml version="1.0" encoding="UTF-8" standalone="no"?>
<!-- Created with Inkscape (http://www.inkscape.org/) -->

<svg
   version="1.1"
   width="623.57703"
   height="790.04901"
   viewBox="-257.756 -350.152 623.57703 790.049"
   id="svg2"
   xml:space="preserve"
   sodipodi:docname="Hessen-Logo-grau.svg"
   inkscape:version="1.4.2 (ebf0e940d0, 2025-05-08)"
   xmlns:inkscape="http://www.inkscape.org/namespaces/inkscape"
   xmlns:sodipodi="http://sodipodi.sourceforge.net/DTD/sodipodi-0.dtd"
   xmlns="http://www.w3.org/2000/svg"
   xmlns:svg="http://www.w3.org/2000/svg"
   xmlns:rdf="http://www.w3.org/1999/02/22-rdf-syntax-ns#"
   xmlns:cc="http://creativecommons.org/ns#"
   xmlns:dc="http://purl.org/dc/elements/1.1/"
   xmlns:ns="http://ns.adobe.com/SaveForWeb/1.0/"><sodipodi:namedview
   id="namedview1"
   pagecolor="#2e2933"
   bordercolor="#000000"
   borderopacity="0.25"
   inkscape:showpageshadow="2"
   inkscape:pageopacity="0.0"
   inkscape:pagecheckerboard="0"
   inkscape:deskcolor="#d1d1d1"
   inkscape:zoom="0.22433288"
   inkscape:cx="-1589.1562"
   inkscape:cy="1094.3558"
   inkscape:window-width="1920"
   inkscape:window-height="1011"
   inkscape:window-x="0"
   inkscape:window-y="32"
   inkscape:window-maximized="1"
   inkscape:current-layer="layer1" /><defs
   id="defs3177"><filter
     style="color-interpolation-filters:sRGB;"
     inkscape:label="Greyscale"
     id="filter1"
     x="0"
     y="0"
     width="1"
     height="1"><feColorMatrix
       values="0 0 0 0 0 0 0 0 0 0 0 0 0 0 0 -1.27 -0.72 -0.17 1.7 0 "
       id="feColorMatrix1" /></filter></defs>
<metadata
   id="metadata3102">
	<ns:sfw>
		<ns:slices />
		<ns:sliceSourceBounds
   bottomLeftOrigin="true"
   height="790.049"
   width="623.577"
   x="-14.162"
   y="24.544" />
	</ns:sfw>
<rdf:RDF><cc:Work
     rdf:about=""><dc:format>image/svg+xml</dc:format><dc:type
       rdf:resource="http://purl.org/dc/dcmitype/StillImage" /></cc:Work></rdf:RDF></metadata>
<g
   id="g1"><g
     transform="translate(-296.09475,-488.42082)"
     id="layer1">
	<path
   id="path2924"
   style="opacity:1;fill:#837591;fill-opacity:1;stroke:none"
   d="m 66.686406,333.2239 v 63.08594 H 633.56922 V 333.2239 Z m 0.08008,125.64844 v 62.97461 l 566.576174,0.33984 V 459.20827 Z M 66.4325,585.82351 v 64.13476 h 567.13086 v -64.13476 z m 0,125.09961 v 63.15625 h 567.13086 v -63.15625 z m 0.275391,125.93554 V 899.9739 H 633.56727 v -63.11524 z"
   sodipodi:nodetypes="ccccccccccccccccccccccccc" />
	
	
	
	
	<path
   d="m 352.202,397.93 c -3.195,1.026 -5.9,3.185 -7.913,5.668 -3.255,0.178 -5.787,1.414 -7.46,3.79 -1.231,1.738 -1.695,3.616 -1.695,5.576 0,0.146 0.032,0.308 0.032,0.458 -2.553,1.565 -3.821,4.146 -4.14,6.71 -0.804,-0.125 -1.619,-0.21 -2.461,-0.21 -11.557,0 -11.557,9.025 -11.557,12.421 0,0.939 0.076,1.905 0.205,2.866 -1.295,-0.432 -2.656,-0.724 -4.092,-0.724 -1.398,0 -2.72,0.286 -3.983,0.691 0.119,-0.95 0.205,-1.9 0.205,-2.834 0,-3.396 0,-12.421 -11.562,-12.421 -0.837,0 -1.657,0.086 -2.461,0.21 -0.319,-2.564 -1.587,-5.145 -4.146,-6.71 0.011,-0.162 0.038,-0.313 0.038,-0.458 0,-1.96 -0.47,-3.838 -1.695,-5.576 -1.668,-2.375 -4.194,-3.611 -7.465,-3.79 -2.008,-2.483 -4.702,-4.642 -7.903,-5.668 l -2.364,-0.756 -2.354,0.756 c -3.201,1.026 -5.895,3.185 -7.908,5.668 -3.26,0.178 -5.792,1.414 -7.455,3.79 -1.23,1.738 -1.706,3.616 -1.706,5.576 0,0.146 0.038,0.308 0.043,0.458 -2.559,1.565 -3.827,4.146 -4.156,6.71 -0.804,-0.125 -1.614,-0.21 -2.461,-0.21 -11.552,0 -11.552,9.025 -11.552,12.421 0,0.96 0.086,1.943 0.216,2.931 -1.35,-0.475 -2.769,-0.788 -4.275,-0.788 -3.919,0 -7.4,1.781 -9.808,4.523 0.643,-2.472 0.988,-5.031 0.988,-7.503 0,-2.105 -0.248,-4.156 -0.739,-6.051 -0.648,-2.515 -1.63,-6.315 -5.242,-8.448 -3.514,-2.083 -7.104,-1.139 -9.042,-0.637 -0.815,0.216 -1.587,0.519 -2.343,0.842 -0.783,-2.041 -2.046,-3.617 -3.806,-4.664 -0.621,-0.356 -1.242,-0.604 -1.846,-0.788 -0.464,-2.089 -1.393,-3.935 -3.147,-5.414 -2.138,-1.813 -4.788,-2.413 -7.865,-1.852 -2.786,-2.256 -6.392,-3.8 -10.607,-3.357 l -8.982,0.972 c 0,0 11.665,45.03 12.064,46.552 0.184,9.738 2.618,15.854 8.583,20.61 -1.576,2.391 -2.672,5.382 -2.672,9.117 0,5.619 2.597,10.564 6.796,13.646 0.194,8.221 4.377,179.176 4.377,179.176 l -0.005,-0.178 c 0,47.189 16.232,89.769 45.71,119.895 28.809,29.441 68.609,45.656 112.074,45.656 43.459,0 83.248,-16.215 112.062,-45.656 29.479,-30.126 45.705,-72.711 45.705,-119.933 v 0.199 c 0,0 4.199,-170.733 4.41,-179.322 4.064,-3.104 6.574,-7.983 6.574,-13.484 0,-3.741 -1.09,-6.726 -2.677,-9.117 5.98,-4.756 8.41,-10.872 8.594,-20.61 0.394,-1.522 12.069,-46.552 12.069,-46.552 l -8.993,-0.972 c -4.21,-0.443 -7.805,1.101 -10.602,3.357 -3.076,-0.562 -5.722,0.038 -7.87,1.852 -1.749,1.479 -2.678,3.325 -3.136,5.414 -0.616,0.184 -1.231,0.432 -1.852,0.788 -1.76,1.047 -3.023,2.624 -3.816,4.664 -0.745,-0.324 -1.518,-0.626 -2.327,-0.842 -1.938,-0.502 -5.527,-1.446 -9.058,0.637 -3.611,2.132 -4.583,5.938 -5.241,8.453 -0.486,1.89 -0.724,3.94 -0.724,6.046 0,2.753 0.438,5.608 1.226,8.361 -2.392,-3.244 -6.191,-5.376 -10.505,-5.376 -1.431,0 -2.785,0.286 -4.081,0.718 0.13,-0.961 0.205,-1.922 0.205,-2.866 0,-3.396 0,-12.421 -11.552,-12.421 -0.842,0 -1.662,0.086 -2.467,0.21 -0.329,-2.564 -1.592,-5.134 -4.14,-6.71 0,-0.151 0.032,-0.308 0.032,-0.458 0,-1.96 -0.465,-3.838 -1.695,-5.576 -1.673,-2.375 -4.21,-3.611 -7.46,-3.79 -2.014,-2.483 -4.718,-4.642 -7.913,-5.657 l -2.359,-0.767 -2.354,0.767 c -3.201,1.015 -5.905,3.174 -7.913,5.657 -3.255,0.178 -5.781,1.414 -7.466,3.79 -1.226,1.738 -1.695,3.616 -1.695,5.576 0,0.151 0.038,0.308 0.038,0.458 -2.553,1.576 -3.827,4.146 -4.146,6.71 -0.805,-0.125 -1.625,-0.21 -2.462,-0.21 -11.552,0 -11.552,9.025 -11.552,12.421 0,0.944 0.076,1.905 0.2,2.866 -1.296,-0.432 -2.656,-0.718 -4.103,-0.718 -1.279,0 -2.505,0.248 -3.687,0.599 0.107,-0.923 0.173,-1.835 0.173,-2.747 0,-3.396 0,-12.421 -11.552,-12.421 -0.837,0 -1.657,0.086 -2.462,0.21 -0.318,-2.564 -1.593,-5.134 -4.141,-6.71 0.006,-0.151 0.032,-0.308 0.032,-0.458 0,-1.96 -0.464,-3.838 -1.694,-5.576 -1.668,-2.375 -4.2,-3.611 -7.46,-3.79 -2.014,-2.483 -4.713,-4.642 -7.919,-5.657 l -2.354,-0.767 -2.354,0.767"
   id="path2934"
   style="display:inline;fill:#2e2933;fill-opacity:1"
   sodipodi:nodetypes="cccsccsscscssccscccccccsccsscscsccccccccccccsccccsccccsccccccccccccscscssccscccccccsccsscscssccsccccc" />
	<path
   id="path2936"
   style="display:inline;fill:#e9ebe5;fill-opacity:1"
   d="m 311.66883,164.75124 c -18.834,0 -36.6543,9.96495 -36.6543,28.50196 0,17.279 11.8167,23.35173 26.7207,28.17773 18.499,5.916 26.72657,10.59144 26.72657,22.89844 0,14.019 -12.33483,18.69336 -23.29883,18.69336 -9.598,0 -21.92606,-5.14525 -26.03906,-11.53125 l -5.48438,9.80859 c 4.286,6.078 19.36256,11.06641 31.35156,11.06641 19.358,10e-4 37.17579,-8.72271 37.17579,-28.97071 0,-19.314 -14.8976,-25.06864 -31.1836,-30.05664 -16.95,-5.139 -22.60742,-11.52829 -22.60742,-21.02929 0,-13.862 11.98997,-18.21289 23.29297,-18.21289 8.566,0 19.18905,3.42093 22.62305,8.71093 l 5.31054,-9.65039 c -4.286,-3.892 -12.85659,-8.40625 -27.93359,-8.40625 z m 81.55859,0 c -18.851,0 -36.66406,9.96495 -36.66406,28.50196 0,17.279 11.8217,23.35173 26.7207,28.17773 18.504,5.916 26.72071,10.59144 26.72071,22.89844 0,14.019 -12.32997,18.69336 -23.29297,18.69336 -9.593,0 -21.92621,-5.14525 -26.03321,-11.53125 l -5.49023,9.80859 c 4.286,6.078 19.36842,11.06641 31.35742,11.06641 19.356,10e-4 37.16992,-8.72271 37.16992,-28.97071 0,-19.314 -14.89868,-25.06864 -31.17968,-30.05664 -16.955,-5.139 -22.61133,-11.52829 -22.61133,-21.02929 0,-13.862 11.99873,-18.21289 23.30273,-18.21289 8.561,0 19.18042,3.42093 22.60742,8.71093 l 5.31641,-9.65039 c -4.281,-3.892 -12.85283,-8.40625 -27.92383,-8.40625 z m -207.71484,1.86133 v 82.14123 21.73768 h 68.34765 v -9.34766 h -55.67382 v -40.18359 h 50.54101 v -9.1875 h -50.54101 v -35.81641 h 53.62304 v -9.34375 z m 266.67578,0 v 103.87891 h 68.36133 v -9.34766 H 464.87 v -40.18359 h 50.54688 v -9.1875 H 464.87 v -35.81641 h 53.62891 v -9.34375 z m -385.605469,0.002 v 103.87891 h 12.679687 v -49.375 h 59.572262 v 49.375 h 12.67579 V 166.61452 h -12.67579 v 45.16016 H 79.262578 v -45.16016 z m 481.966799,0 v 103.87891 h 12.33984 v -90.16797 l 55.55078,90.16797 h 16.78907 V 166.61452 h -12.33594 v 90.16797 l -55.55469,-90.16797 z m -276.76563,237.73047 -0.33398,0.0977 c -2.947,0.955 -5.47374,3.8442 -6.55274,6.4082 -1.026,-0.313 -2.04004,-0.48633 -2.62304,-0.48633 -0.772,0 -2.06144,-4.7e-4 -2.77344,1.01953 -0.302,0.438 -0.46484,0.97194 -0.46484,1.71094 0,1.182 0.43746,2.97305 1.35546,5.74805 -0.756,-0.086 -1.5017,-0.12891 -2.0957,-0.12891 -1.808,0 -3.48047,0.35164 -3.48047,2.93164 0,2.229 1.45805,3.98849 2.74805,5.52149 1.106,1.328 2.14258,2.56814 2.14258,3.86914 0,0.389 -0.12899,1.6582 -1.83399,1.6582 -1.544,0 -2.52173,-0.9995 -3.55273,-2.0625 l -0.33594,-0.33984 c -1.608,-1.63 -4.7285,-3.53516 -8.1875,-3.53516 -4.313,0 -4.89062,1.14931 -4.89062,5.69531 0,4.658 2.45618,10.38963 5.99218,14.26563 -1.08,2.721 -1.59179,5.55044 -1.59179,7.14844 0,3.973 1.0627,5.05664 4.9707,5.05664 4.189,0 7.70239,-2.59107 10.52539,-4.66407 1.636,-1.204 3.18566,-2.34765 4.09766,-2.34765 1.269,0 1.35937,1.13437 1.35937,1.48437 0,3.503 -5.78047,7.54699 -15.48047,10.83399 -7.325,-2.677 -13.99623,-6.83405 -17.36523,-10.62305 2.057,-1.102 3.45312,-3.26662 3.45312,-5.76562 0,-3.595 -2.89893,-6.51563 -6.46093,-6.51563 -3.563,0 -6.4668,2.91963 -6.4668,6.51563 0,2.526 1.42553,4.71382 3.51953,5.79882 -3.282,3.768 -9.89923,7.89602 -17.24023,10.54102 -9.603,-3.288 -15.3418,-7.30316 -15.3418,-10.78516 0,-0.955 8e-5,-0.95609 0.95508,-1.20507 0.875,-0.227 2.66192,0.48546 4.54492,1.23046 3.26,1.295 7.30942,2.90494 11.35742,1.83594 1.744,-0.453 2.9425,-0.95053 3.5625,-2.01953 0.286,-0.491 0.4043,-1.01391 0.4043,-1.62891 0,-0.712 -0.16216,-1.52176 -0.41016,-2.50976 -0.41,-1.544 -1.63042,-4.17311 -3.35742,-6.53711 1.744,-3.293 2.74805,-7.32044 2.74805,-11.02344 0,-1.522 -0.1611,-2.95839 -0.4961,-4.27539 -0.578,-2.187 -1.03178,-3.67156 -2.17578,-4.35156 -1.053,-0.621 -2.32137,-0.36585 -3.98437,0.082 -3.357,0.875 -5.89383,3.51986 -7.04883,5.50586 l -0.23828,0.42578 c -0.74,1.285 -1.42478,2.49553 -2.92578,2.89453 -1.641,0.432 -2.08755,-0.77253 -2.18555,-1.14453 -0.324,-1.258 0.37147,-2.73125 1.10547,-4.28125 0.864,-1.825 1.84615,-3.88678 1.28515,-6.05078 -0.184,-0.686 -0.45812,-1.44791 -1.20312,-1.87891 -0.858,-0.513 -1.95444,-0.31825 -2.89844,-0.0645 -0.583,0.141 -1.29019,0.3793 -1.99219,0.6543 0.07,-1.193 0.12891,-2.2731 0.12891,-3.1211 0,-2.516 -0.35067,-3.66522 -1.13867,-4.32422 -0.95,-0.815 -2.1975,-0.48501 -2.9375,-0.29101 -0.583,0.156 -1.48277,0.56133 -2.38477,1.11133 -1.803,-2.624 -4.82611,-4.84624 -8.16211,-4.49024 l -1.28515,0.13477 c 0,0 10.22406,39.43792 10.28906,39.66992 0.021,10.882 2.42852,15.11327 11.10352,19.57227 0,0 1.07357,0.51324 2.14257,1.03125 -3.876,2.024 -7.29687,4.92943 -7.29687,10.14843 0,5.015 3.23145,8.94947 7.81445,9.98047 0.626,25.457 4.46485,182.64292 4.46485,182.66992 0,45.105 15.4387,85.72882 43.4707,114.38282 27.335,27.939 65.17015,43.31835 106.53516,43.31836 41.35399,0 79.19234,-15.37936 106.52734,-43.31836 28.032,-28.653 43.46484,-69.27702 43.46484,-114.41602 0,0 4.10405,-167.08041 4.49805,-182.69141 4.47,-1.101 7.60156,-4.99178 7.60156,-9.92578 0,-5.22 -3.42369,-8.12445 -7.30469,-10.14843 1.074,-0.518 2.14258,-1.03126 2.14258,-1.03125 8.681,-4.459 11.08924,-8.69027 11.11524,-19.57227 0.06,-0.238 10.27734,-39.66992 10.27734,-39.66992 l -1.28125,-0.13477 c -3.336,-0.356 -6.35411,1.86795 -8.16211,4.50196 -0.906,-0.556 -1.80195,-0.96005 -2.3789,-1.12305 -0.745,-0.194 -1.9875,-0.51399 -2.9375,0.29101 -0.78801,0.659 -1.14063,1.80822 -1.14063,4.32422 0,0.848 0.0439,1.9281 0.13086,3.1211 -0.713,-0.275 -1.42033,-0.5143 -1.98633,-0.6543 -0.961,-0.254 -2.05301,-0.44875 -2.91601,0.0645 -0.729,0.432 -1.0205,1.19391 -1.1875,1.87891 -0.567,2.165 0.41043,4.22678 1.27343,6.05078 0.734,1.549 1.42547,3.02325 1.10547,4.28125 -0.091,0.372 -0.54456,1.57653 -2.18554,1.14453 -1.501,-0.399 -2.19079,-1.62053 -2.92579,-2.89453 l -0.24414,-0.42578 c -1.155,-1.986 -3.68706,-4.63086 -7.03906,-5.50586 -1.673,-0.448 -2.93519,-0.70315 -3.99219,-0.082 -1.14,0.68 -1.59915,2.16556 -2.16015,4.35156 -0.341,1.317 -0.50782,2.76439 -0.50782,4.27539 0,3.703 0.99905,7.74144 2.74805,11.02344 -1.733,2.364 -2.94767,4.99311 -3.34765,6.53711 -0.265,0.993 -0.39844,1.81767 -0.39844,2.51367 0,1.992 1.14345,2.91053 3.93945,3.64453 4.059,1.069 8.10742,-0.54594 11.35742,-1.83594 1.889,-0.745 3.66992,-1.4575 4.54492,-1.23046 0.961,0.249 0.96094,0.25007 0.96094,1.20507 0,3.477 -5.73194,7.50216 -15.33594,10.78516 -7.347,-2.645 -13.95323,-6.77402 -17.24023,-10.54102 2.084,-1.085 3.51367,-3.27282 3.51367,-5.79882 0,-3.595 -2.89781,-6.51563 -6.46679,-6.51563 -3.55701,0 -6.46094,2.91963 -6.46094,6.51563 0,2.499 1.39722,4.67462 3.44922,5.76562 -3.39,3.822 -10.10124,7.99469 -17.49024,10.67774 -9.781,-3.304 -15.62695,-7.37468 -15.62695,-10.88868 0,-0.351 0.0912,-1.48437 1.36523,-1.48437 0.918,0 2.46152,1.14465 4.10352,2.34765 2.823,2.079 6.33725,4.66993 10.53125,4.66993 3.897,0 4.9707,-1.0906 4.9707,-5.0586 0,-1.603 -0.52842,-4.43234 -1.60742,-7.15234 3.552,-3.859 5.99219,-9.60663 5.99219,-14.26563 0,-4.545 -0.56286,-5.69531 -4.88086,-5.69531 -3.454,0 -6.57422,1.91116 -8.19922,3.53516 l -0.32813,0.33984 c -1.025,1.063 -1.99759,2.0625 -3.55859,2.0625 -1.7,0 -1.83008,-1.26934 -1.83008,-1.65234 0,-1.306 1.04867,-2.548 2.13867,-3.875 1.29,-1.533 2.75196,-3.29249 2.75196,-5.52149 0,-2.58 -1.67233,-2.93164 -3.48633,-2.93164 -0.588,0 -1.33813,0.0419 -2.07813,0.12891 0.902,-2.775 1.34961,-4.56605 1.34961,-5.74805 0,-0.74 -0.1567,-1.26894 -0.4707,-1.71094 -0.718,-1.02 -2.00767,-1.01953 -2.76367,-1.01953 -0.599,0 -1.59805,0.17333 -2.62305,0.48633 -1.091,-2.564 -3.6205,-5.4592 -6.5625,-6.4082 l -0.34179,-0.0977 -0.33399,0.0977 c -2.941,0.95 -5.48836,3.8442 -6.56836,6.4082 -1.025,-0.313 -2.03405,-0.48633 -2.62305,-0.48633 -0.756,0 -2.04076,-4.7e-4 -2.75976,1.01953 -0.318,0.443 -0.48047,0.97194 -0.48047,1.71094 0,1.182 0.45533,2.97305 1.36133,5.74805 -0.744,-0.086 -1.49599,-0.12891 -2.08399,-0.12891 -1.814,0 -3.49218,0.35164 -3.49218,2.93164 0,2.229 1.46181,3.98849 2.75781,5.52149 1.096,1.328 2.13867,2.569 2.13867,3.875 0,0.383 -0.12422,1.65234 -1.82422,1.65234 -1.561,0 -2.5315,-0.9995 -3.5625,-2.0625 l -0.32422,-0.33984 c -1.631,-1.625 -4.74422,-3.53516 -8.19922,-3.53516 -4.318,0 -4.88476,1.14931 -4.88476,5.69531 0,4.658 2.43919,10.40563 5.99219,14.26563 -1.08,2.721 -1.60938,5.54934 -1.60938,7.15234 0,3.968 1.07452,5.0586 4.97852,5.0586 4.188,0 7.70239,-2.59193 10.52539,-4.66993 1.646,-1.204 3.18856,-2.34765 4.10156,-2.34765 1.274,0 1.37109,1.13437 1.37109,1.48437 0,3.498 -5.76987,7.5255 -15.42187,10.8125 -7.266,-2.607 -13.98064,-6.80317 -17.30664,-10.57617 2.072,-1.085 3.49219,-3.27001 3.49219,-5.79101 0,-3.595 -2.8978,-6.51563 -6.4668,-6.51563 -3.562,0 -6.45508,2.91963 -6.45508,6.51563 0,2.504 1.40798,4.68648 3.45899,5.77148 -3.368,3.849 -10.01155,8.00347 -17.31055,10.60547 -9.678,-3.293 -15.45508,-7.31927 -15.45508,-10.82227 0,-0.351 0.0919,-1.48437 1.37695,-1.48437 0.901,0 2.44994,1.14465 4.08594,2.34765 2.828,2.079 6.34325,4.66993 10.53125,4.66993 3.903,0 4.97852,-1.0895 4.97852,-5.0625 0,-1.598 -0.51961,-4.42744 -1.59961,-7.14844 3.542,-3.865 5.99218,-9.60663 5.99218,-14.26563 0,-4.545 -0.57748,-5.69531 -4.89648,-5.69531 -3.455,0 -6.57045,1.90516 -8.18945,3.53516 l -0.33985,0.33984 c -1.025,1.063 -2.00164,2.0625 -3.55664,2.0625 -1.689,0 -1.82422,-1.2702 -1.82422,-1.6582 0,-1.301 1.03558,-2.54114 2.14258,-3.86914 1.291,-1.533 2.74805,-3.29249 2.74805,-5.52149 0,-2.58 -1.67347,-2.93164 -3.48047,-2.93164 -0.594,0 -1.33398,0.0419 -2.08398,0.12891 0.901,-2.775 1.35351,-4.56605 1.35351,-5.74805 0,-0.74 -0.16784,-1.27394 -0.46484,-1.71094 -0.729,-1.02 -2.00744,-1.01953 -2.77344,-1.01953 -0.589,0 -1.59805,0.17333 -2.62305,0.48633 -1.08,-2.564 -3.62845,-5.4532 -6.56445,-6.4082 l -0.33984,-0.0977 -0.33985,0.0977 c -2.948,0.95 -5.47445,3.8442 -6.56445,6.4082 -1.025,-0.313 -2.02905,-0.48633 -2.62305,-0.48633 -0.761,0 -2.04567,-4.7e-4 -2.76367,1.01953 -0.313,0.443 -0.4707,0.97194 -0.4707,1.71094 0,1.182 0.43761,2.97305 1.34961,5.74805 -0.74,-0.086 -1.49403,-0.12891 -2.08203,-0.12891 -1.809,0 -3.48633,0.35164 -3.48633,2.93164 0,2.229 1.46781,3.98849 2.75781,5.52149 1.09,1.328 2.13672,2.56814 2.13672,3.86914 0,0.389 -0.12822,1.6582 -1.82422,1.6582 -1.56,0 -2.5265,-0.9995 -3.5625,-2.0625 l -0.32422,-0.33984 c -1.63,-1.63 -4.74422,-3.53516 -8.19922,-3.53516 -4.318,0 -4.88476,1.14931 -4.88476,5.69531 0,4.658 2.44018,10.38963 5.99218,14.26563 -1.08,2.721 -1.60937,5.55044 -1.60937,7.14844 0,3.973 1.07051,5.0625 4.97852,5.0625 4.189,0 7.70239,-2.59193 10.52539,-4.66993 1.641,-1.204 3.19051,-2.34765 4.10351,-2.34765 1.263,0 1.36524,1.13437 1.36524,1.48437 0,3.493 -5.77197,7.5255 -15.41797,10.8125 -7.266,-2.607 -13.98469,-6.80317 -17.30469,-10.57617 2.067,-1.085 3.49219,-3.27001 3.49219,-5.79101 0,-3.601 -2.8988,-6.51563 -6.4668,-6.51563 -3.563,0 -6.46094,2.91463 -6.46094,6.51563 0,2.504 1.40994,4.68648 3.46094,5.77148 -3.369,3.875 -10.0845,8.04325 -17.4375,10.65625 -9.76,-3.298 -15.58789,-7.35905 -15.58789,-10.87305 0,-0.351 0.107,-1.48437 1.375,-1.48437 0.901,0 2.45666,1.14465 4.09766,2.34765 2.817,2.073 6.33139,4.66407 10.52539,4.66407 3.903,0 4.97265,-1.08364 4.97265,-5.05664 0,-1.598 -0.52351,-4.42744 -1.60351,-7.14844 3.547,-3.865 6.00195,-9.60663 6.00195,-14.26563 0,-4.545 -0.58239,-5.69531 -4.90039,-5.69531 -3.455,0 -6.56859,1.90516 -8.18359,3.53516 l -0.33399,0.33984 c -1.037,1.063 -2.00945,2.0625 -3.56445,2.0625 -1.695,0 -1.82813,-1.2702 -1.82813,-1.6582 0,-1.301 1.04035,-2.54114 2.15235,-3.86914 1.279,-1.533 2.74218,-3.29249 2.74218,-5.52149 0,-2.58 -1.67942,-2.93164 -3.48242,-2.93164 -0.594,0 -1.34289,0.0419 -2.08789,0.12891 0.907,-2.775 1.35547,-4.56605 1.35547,-5.74805 0,-0.74 -0.16284,-1.27394 -0.46484,-1.71094 -0.729,-1.02 -2.00244,-1.01953 -2.77344,-1.01953 -0.589,0 -1.599,0.17333 -2.625,0.48633 -1.08,-2.564 -3.61636,-5.4592 -6.56836,-6.4082 z m 41.56446,56.52539 c 3.082,2.931 5.88826,5.0635 9.19726,6.9375 0,0 0.27449,0.15461 0.64649,0.34961 -4.534,2.03 -7.69613,4.06572 -9.95313,6.38672 -2.208,-2.294 -5.34405,-4.31231 -9.87305,-6.32031 0.308,-0.162 0.77344,-0.41602 0.77344,-0.41602 2.515,-1.431 5.56499,-3.4125 9.20899,-6.9375 z m 82.50195,0 c 3.099,2.931 5.90498,5.0635 9.20898,6.9375 0,0 0.40949,0.21961 0.64649,0.34961 -4.458,1.987 -7.57713,3.98386 -9.82813,6.25586 -2.219,-2.272 -5.35004,-4.25886 -9.87304,-6.25586 0.238,-0.129 0.64648,-0.34961 0.64648,-0.34961 2.516,-1.431 5.57222,-3.4175 9.19922,-6.9375 z m -165.44336,0.01 c 3.638,3.514 6.68725,5.49673 9.19727,6.92773 0,0 0.30946,0.16558 0.73046,0.39258 -4.405,1.97 -7.49842,3.94698 -9.73242,6.20899 -2.251,-2.294 -5.40898,-4.29669 -9.95898,-6.30469 0.183,-0.097 0.55469,-0.29688 0.55469,-0.29688 2.63999,-1.496 5.77098,-3.53773 9.20898,-6.92773 z m 248.31445,0 c 3.444,3.39 6.57875,5.43173 9.21875,6.92773 0,0 0.22778,0.12764 0.55078,0.30664 -4.594,2.019 -7.78306,4.04838 -10.03906,6.35938 -2.191,-2.256 -5.27928,-4.24252 -9.73828,-6.22852 0.334,-0.179 0.81836,-0.4375 0.81836,-0.4375 2.505,-1.431 5.56245,-3.41373 9.18945,-6.92773 z m -206.93945,0.0664 c 3.18,3.422 6.72598,5.70124 9.20898,7.11524 0,0 0.40411,0.21523 0.91211,0.49023 -4.664,2.187 -7.99454,4.47527 -10.31054,7.07227 -2.407,-2.5 -5.79624,-4.84247 -10.11524,-6.98047 0.514,-0.275 1.10742,-0.58203 1.10742,-0.58203 2.483,-1.414 6.03427,-3.69324 9.19727,-7.11524 z m 82.7793,0 c 3.18,3.422 6.72112,5.70124 9.20312,7.11524 0,0 0.34583,0.18292 0.79883,0.41992 -4.712,2.191 -8.05839,4.48003 -10.40039,7.08203 -2.43,-2.548 -5.71708,-4.87989 -9.83008,-6.96289 0.464,-0.254 1.0293,-0.53906 1.0293,-0.53906 2.478,-1.414 6.02022,-3.69324 9.19922,-7.11524 z m 82.51367,0 c 3.18,3.422 6.72026,5.70124 9.19726,7.11524 0,0 0.57919,0.30134 1.24219,0.65234 -4.496,2.246 -7.97372,4.7078 -10.38672,7.3418 -2.461,-2.742 -5.9102,-5.23608 -10.2832,-7.45508 0.476,-0.237 1.03906,-0.53906 1.03906,-0.53906 2.472,-1.414 6.01241,-3.69324 9.19141,-7.11524 z M 209.8993,473.08718 c 1.884,0.88 5.95898,2.88742 5.95898,4.10742 0,0.766 -1.55383,2.43945 -6.17383,2.43945 -4.005,0 -5.79687,-1.22545 -5.79687,-2.43945 0,-1.377 2.68672,-2.68842 6.01172,-4.10742 z m 289.33398,0 c 3.325,1.419 6.01367,2.73642 6.01367,4.10742 0,0.734 -8.3e-4,2.43945 -5.79882,2.43945 -2.81701,0 -6.17969,-0.41545 -6.17969,-2.43945 10e-4,-1.215 4.08584,-3.21742 5.96484,-4.10742 z m -124.25195,0.30273 c 2.709,1.171 6.08984,2.69169 6.08984,3.80469 0,0.799 6.7e-4,2.45703 -5.86133,2.45703 -5.873,0 -5.87304,-1.65803 -5.87304,-2.45703 0,-1.231 3.35553,-2.77969 5.64453,-3.80469 z m -40.87305,0.0156 c 2.332,1.047 5.74219,2.65506 5.74219,3.78906 0,2.029 -3.20553,2.46094 -5.89453,2.46094 -2.699,0 -5.91602,-0.43194 -5.91602,-2.46094 0.001,-1.113 3.38536,-2.62306 6.06836,-3.78906 z m 82.51367,0 c 2.332,1.047 5.74219,2.65506 5.74219,3.78906 0,1.63 -1.97953,2.46094 -5.89453,2.46094 -3.919,0 -5.91016,-0.83194 -5.91016,-2.46094 10e-4,-1.113 3.3635,-2.62306 6.0625,-3.78906 z m -165.36132,0.0312 c 2.191,0.993 5.65039,2.63481 5.65039,3.75781 0,0.734 -6e-4,2.45117 -5.8086,2.45117 -5.83,0 -5.83008,-1.71717 -5.83008,-2.45117 0,-1.106 3.44024,-2.65081 5.98829,-3.75781 z m 41.08398,0.006 c 2.532,1.101 5.95312,2.64495 5.95312,3.75195 0,0.669 5.8e-4,2.43945 -5.73242,2.43945 -5.743,0 -5.74414,-1.77045 -5.74414,-2.43945 0,-1.221 3.27244,-2.74795 5.52344,-3.75195 z m 165.40625,0.0547 c 2.482,1.08 5.8457,2.59526 5.8457,3.69726 0,0.604 -3.1e-4,2.43358 -5.69531,2.4336 -5.684,0 -5.68359,-1.8296 -5.68359,-2.4336 0,-1.113 3.3892,-2.72026 5.5332,-3.69726 z"
   sodipodi:nodetypes="sscsscccscssccssscsscccscssccsccccccccccccccccccccccccccccccccccccccccccccccccccccccscscsscssccsscsscssccsssccsccccsccsccccccccccccsccccccccscscscccsccccccccsccccccccccccsccscccsccsssccsscsscssccsscsscscscccccscscsscssccsscsscssccsssccsscsscssccsscsscscscccccscscsscssccsscsscssccsssccsscsscssccsscsscscscccccccccccccccccccccccccccccccccccccccccccccccccccccsssccsscccsssccsscccsscccsssccsssccsssc" />
	
	
	
	
	<path
   id="path2946"
   style="display:inline;fill:#2e2933;fill-opacity:1"
   d="m 383.43836,497.33718 c -1.26948,0.0201 -2.81406,0.69508 -5.22656,2.31445 -1.296,0.907 -4.30939,3.61708 -6.02539,5.08008 l -1.20899,-1.41016 c 1.689,-1.608 3.82338,-3.30273 4.85938,-4.17773 -1.117,-0.227 -2.05277,-0.27539 -2.75977,-0.27539 -3.255,0 -6.42394,0.43286 -8.96094,2.38086 -16.222,0 -24.57679,9.10106 -26.34179,13.41406 -6.224,3.638 -13.10157,9.16105 -13.10157,13.12305 0,1.047 0.14582,1.7164 0.38282,2.1914 1.668,-0.864 3.29872,-2.26859 4.76172,-3.55859 l 0.98828,1.08984 c -1.252,1.258 -3.82321,3.26227 -4.90821,3.94727 -0.815,1.058 -1.00781,2.79516 -1.00781,4.28516 0,4.427 4.6408,8.22656 9.4668,8.22656 6.872,0 9.3072,-6.28678 8.9082,-9.17578 3.719,-0.291 14.32031,3.43442 14.32031,14.14844 0,6.69898 -7.42143,7.39843 -10.02343,7.39843 -2.613,0 -4.5456,-0.78711 -7.4336,-0.78711 -2.872,0 -4.20508,1.00464 -4.20508,2.93164 0,2.586 3.03404,4.92383 6.33204,4.92383 3.255,0 3.48112,-2.64648 6.07812,-2.64648 1.517,0 4.13086,0.79414 4.13086,4.99414 0,4.156 -4.42755,5.91015 -8.81055,5.91015 -10.165,0 -17.15542,-7.31835 -20.10742,-7.31835 v 9.15429 c -9.414,0 -12.53926,-2.58581 -16.44726,-6.13281 -3.217,2.591 -6.76368,7.57761 -6.76368,13.22461 0,3.919 0.33968,7.13109 1.13868,9.37109 -8.043,1.139 -16.33402,8.89122 -20.29102,17.94922 -2.51,5.775 -3.21195,8.84132 -8.37695,11.02735 2.915,7.05498 9.33822,10.64018 15.44922,10.86718 -3.859,4.329 -1.6044,13.77469 1.22461,14.17969 3.73,-3.373 7.68665,-4.11914 11.97265,-4.11914 9.9,0 15.24003,3.4668 24.83203,3.4668 18.234,0 29.86774,-6.13883 38.67774,-13.79883 4.038,1.911 9.89872,2.9375 12.63672,2.9375 5.382,0 9.97926,-2.00885 12.32226,-5.21485 -1.852,-2.408 -4.12876,-8.36154 -2.50976,-12.68554 2.224,1.781 6.37089,3.09948 9.58789,2.39648 -0.691,-7.353 1.18779,-13.80772 3.34179,-16.63672 2.478,-3.238 4.04142,-7.40112 4.60743,-10.20312 h 8.98828 c -1.314,-1.959 -2.7016,-4.94781 -2.1836,-8.88281 2.214,-16.848 1.72856,-24.67022 0.47657,-27.57422 3.228,-0.173 5.99657,-0.61494 8.51757,-1.71094 -2.791,-2.678 -7.29765,-8.27088 -8.72265,-13.17188 -1.188,-4.043 -3.91486,-10.4444 -7.25586,-11.6914 2.207,-0.702 3.81165,-1.66797 5.72265,-4.37695 -5.722,-2.67201 -8.1947,-6.07857 -13.9707,-8.97657 1.818,-1.042 3.42217,-2.9272 3.95117,-4.9082 -2.996,-0.394 -5.86131,-1.51681 -8.69531,-2.88281 -0.476,2.213 -1.27878,4.25539 -3.67578,6.90039 l -1.66406,-1.38867 c 1.506,-1.722 3.26562,-4.41485 3.26562,-6.58985 0,-3.006 -2.45944,-5.97664 -4.14844,-6.93164 -0.69037,-0.39675 -1.35354,-0.61949 -2.11523,-0.60742 z m -41.09375,16.43359 c 2.958,0.281 6.89359,1.88875 9.93359,6.09375 -0.006,-0.004 -1.30052,1.00957 -1.30078,1.00977 0,0 -0.9335,-1.57614 -1.9375,-2.49414 -0.421,1.166 -2.12247,2.85547 -3.85547,2.85547 -2.472,0 -4.03711,-2.21757 -4.03711,-4.22657 0,-0.944 0.46327,-2.41728 1.19727,-3.23828 z m -95.00977,0.24414 c -3.573,0 -5.62995,1.42994 -6.75195,3.21094 2.299,1.263 3.49813,2.25449 4.45313,3.77149 1.506,-1.51 3.56782,-2.09766 5.42382,-2.09766 1.593,0 2.839,0.0643 4,0.4043 -1.252,-3.298 -3.412,-5.28907 -7.125,-5.28907 z m 95.48047,1.09571 c -0.367,0.485 -0.54492,1.35429 -0.54492,2.02929 0,1.436 1.01386,2.98047 2.88086,2.98047 1.458,0 2.68919,-1.56462 2.99219,-2.39062 -1.015,-1.107 -3.21213,-2.41914 -5.32813,-2.61914 z m -112.82422,3.0332 c -4.113,0 -6.64968,3.47147 -7.05468,6.85547 1.917,0.086 3.09778,0.47389 4.30078,1.21289 1.549,-2.083 4.98894,-5.01363 9.08594,-4.76563 v -0.01 c -1.441,-2.348 -3.57304,-3.29297 -6.33204,-3.29297 z m 254.12305,1.45508 c -3.509,8.944 -12.70753,15.13053 -21.14453,17.89453 1.533,-2.883 2.63536,-6.96413 1.31836,-11.82813 -1.749,0.88 -5.91722,3.43416 -8.32422,4.53516 -5.123,2.337 -20.9245,8.615 -18.1875,29.5 -6.548,5.651 -17.65625,15.34095 -17.65625,35.62695 0,15.529 16.46922,36.81293 27.32422,43.41993 10.86,6.607 26.96875,13.0099 26.96875,27.3789 0,13.938 -10.10427,24.04883 -23.69727,24.04883 -4.566,0 -7.56726,-0.8247 -10.94726,-3.4707 1.469,-1.522 2.21875,-3.98252 2.21875,-6.97852 0,-17.025 -25.8546,-26.29528 -47.9336,-40.11328 -2.926,-1.836 -5.0905,-3.72525 -7.5625,-6.65625 -2.046,1.155 -5.9599,1.4043 -9.1289,1.4043 -2.742,0 -7.04241,-0.89083 -11.44141,-2.42383 -8.297,6.742 -21.16639,13.42969 -39.40039,13.42969 -9.598,0 -15.75667,-3.48633 -24.26367,-3.48633 -4.286,0 -8.97697,1.10153 -12.04297,5.14453 -4.928,-1.538 -7.51569,-9.2352 -4.92969,-15.6582 -4.507,-0.982 -8.62103,-2.98025 -11.95703,-7.40625 -4.939,3.174 -12.33998,7.90095 -17.20898,9.12695 -4.836,1.203 -15.68567,6.79687 -18.51367,6.79687 -4.373,0 -7.01296,-4.5332 -10.12696,-4.5332 -3.703,0 -7.67578,4.35538 -7.67578,6.98438 0,3.131 2.70475,6.00245 5.34375,7.18945 -6.769,-0.205 -8.96055,1.81816 -8.68555,5.91016 3.827,0.599 6.21402,5.69396 5.29102,8.79296 0.308,0.799 1.7747,1.5994 3.3457,1.1504 -0.486,2.024 -1.66701,6.33742 1.45899,8.85742 1.204,-2.256 2.80561,-3.02344 5.09961,-3.02344 2.311,0 4.28189,2.15484 4.83789,3.71484 1.506,-0.346 3.20117,-1.77058 3.20117,-3.76757 0,-3.95101 2.01447,-6.6248 3.73047,-6.7168 0.534,2.43 2.66701,3.21915 4.41601,3.78515 -0.281,-4.323 2.62707,-5.71093 4.53907,-5.71093 3.044,0 4.34037,1.31567 5.48437,3.51367 1.765,-0.67 2.86672,-2.591 2.80274,-4.75 -0.076,-2.159 -0.4441,-3.06152 -1.6211,-4.10352 0.939,-1.036 5.60353,-3.30468 10.76953,-3.30468 7.682,0 11.16814,2.5656 16.11914,5.72461 1.517,-1.031 2.95677,-2.78665 3.13477,-5.43165 3.368,-0.372 5.87859,3.71274 9.05859,8.05274 1.965,-1.085 5.0535,-4.98517 4.5625,-8.45117 6.807,0.491 10.43419,2.34718 14.74219,4.99218 2.839,-1.382 3.85962,-4.64759 4.01563,-7.55859 15.471,14.969 30.5215,19.16313 50.0625,20.45313 14.88799,0.978 23.56193,9.62946 24.83593,13.98046 -2.326,-1.21 -5.24179,-1.80859 -8.96679,-1.80859 -9.743,0 -17.61329,11.78453 -17.61329,23.64453 0,8.394 1.35374,15.61517 9.67774,24.45117 7.757,8.238 9.79297,9.2423 9.79297,17.2793 4.271,-1.23 5.39687,-3.29692 6.54687,-6.04492 0.076,6.203 2.91678,11.53988 7.17578,12.87891 2.3,-4.351 4.26386,-6.96832 7.00586,-8.69532 0.777,17.636 -16.60306,27.54492 -22.78906,27.54492 -4.978,0 -5.32775,-2.74609 -9.34375,-2.74609 -3.974,0 -8.63281,3.25489 -8.63281,7.83789 0,2.834 1.82934,4.81036 3.77734,5.94336 -4.75,2.472 -5.3207,4.97641 -4.9707,8.44141 5.922,-1.188 8.34525,4.31786 7.28125,7.88086 3.644,0.783 6.32056,-0.90585 8.22656,-2.58985 0.583,1.775 2.25653,3.45414 4.26953,3.99414 1.269,-2.164 3.24078,-3.74609 5.67578,-3.74609 2.435,0 4.45143,0.93267 5.48243,4.26367 2.753,-0.556 6.02501,-5.59164 4.41601,-9.05664 2.786,-0.745 5.57066,-4.6908 5.72266,-7.38476 1.867,2.39598 4.3185,4.25745 6.9375,3.06445 -0.254,-4.615 3.68645,-7.9668 6.31445,-7.9668 1.544,0 2.80692,0.19389 3.79492,0.71289 0.318,-0.594 0.58789,-1.4582 0.58789,-2.4082 0,-2.17 -1.86215,-3.85414 -3.53515,-4.74414 5.068,-3.207 9.90028,-9.73394 11.36328,-13.96094 0.405,2.753 1.80237,4.9087 4.60937,5.4707 1.916,-1.582 2.59596,-2.92206 2.87696,-6.41406 5.258,1.662 10.66606,1.32138 12.53906,-1.89062 -1.408,-1.188 -2.80664,-3.20557 -2.80664,-5.85157 0,-6.85 2.33789,-9.56006 2.33789,-15.78906 0,-6.369 -4.58272,-11.58398 -10.38672,-11.58398 -3.827,0 -7.11983,1.51248 -8.79883,3.39648 -7.267,0 -14.75976,-7.91214 -14.75976,-16.61914 0,-8.286 5.33367,-13.22728 11.76367,-16.23828 3.924,1.7 10.34784,3.6543 17.08984,3.6543 6.736,0 11.92342,-1.95466 14.35742,-4.22266 0.945,0.945 2.99269,2.64648 5.80469,2.64648 4.886,0 8.00936,-1.39301 10.44336,-4.41601 2.435,-3.022 4.35753,-6.00169 8.64453,-9.55469 -3.36292,-1.88395 -7.59473,-1.3334 -11.05469,1.27344 9.22971,-11.27458 5.82422,-23.55653 5.82422,-29.22266 0,-8.248 8.41993,-13.63598 8.41993,-20.45898 0,-1.895 -0.0525,-3.50385 -0.98047,-5.21485 -3.832,3.751 -6.17089,3.43386 -9.58789,4.88086 -3.876,1.635 -7.48574,5.60275 -6.55274,10.05079 -5.436,-3.784 -13.95898,-8.63836 -13.95898,-16.44336 0,-11.19 20.41406,-8.09663 20.41406,-20.01563 -2.035,2.969 -4.5005,4.3457 -8.0625,4.3457 -3.553,0 -8.24797,-2.15429 -12.91797,-2.15429 -8.771,0 -12.31836,6.11762 -12.31836,9.14062 0,3.023 0.0378,5.45169 1.46875,7.92969 -6.569,-2.375 -11.82226,-8.64722 -11.82226,-16.94922 0,-24.75 34.49429,-17.45866 38.77929,-34.59766 -12.172,9.29 -21.25217,1.22555 -32.57617,8.68555 0.588,-2.926 1.67959,-4.80337 4.30859,-6.98437 -7.115,0.562 -11.94064,2.18226 -18.18164,7.82226 4.707,-14.704 12.91279,-19.86442 24.55079,-21.60742 21.77499,-3.249 31.99804,-17.17116 31.99804,-32.28516 0,-5.668 -0.46853,-9.52251 -1.89453,-13.60351 z m -232.30469,1.12695 c -2.99,0 -6.12586,0.90572 -6.25586,3.63672 -0.14,2.737 0.96061,5.15131 1.34961,6.57031 0.513,1.884 0.25945,4.55577 -0.0644,6.63477 -2.704,-2.932 -5.34961,-6.30478 -5.34961,-9.30078 0,-3.061 -2.68759,-5.27563 -5.80859,-5.14063 -3.109,0.135 -8.0586,3.84411 -8.0586,7.41211 0,3.125 2.33572,4.33942 4.51172,5.73242 1.425,0.901 2.96924,2.00791 3.86524,5.29493 -2.381,-1.327 -4.18444,-1.78516 -7.02344,-1.78516 -2.85,0 -6.77344,1.32823 -6.77344,6.24023 0,6.153 4.59428,8.51727 9.73828,9.19727 -0.405,4.513 3.61036,11.4707 10.69336,11.4707 1.565,0 3.10906,-0.75648 3.78906,-1.77148 8.545,11.481 9.83454,20.13541 9.89454,26.89844 3.223,0 6.12862,-0.85429 6.76562,-5.73829 3.169,9.122 2.71508,16.34543 0.20508,23.23243 3.379,0.546 8.32297,-1.058 9.54297,-4.75 3.158,5.236 3.42276,6.91595 3.50976,9.50195 2.05,-2.786 1.85577,-4.37408 3.88477,-8.33008 3.946,-7.698 11.11997,-15.58423 19.16797,-17.49023 -0.437,-2.224 -0.86914,-3.82038 -0.86914,-7.73438 0,-1.5 0.45376,-3.9354 0.88476,-5.3164 -9.5,-4.88 -24.7652,-14.00352 -27.6582,-18.0625 -8.221,-11.51401 -15.21138,-15.82575 -15.10938,-22.09375 0.048,-2.596 1.80665,-6.28932 1.80665,-9.57032 0,-3.271 -4.05768,-4.73828 -6.63868,-4.73828 z m -31.02734,22.56641 c -3.136,0.615 -5.94336,3.73092 -5.94336,7.91992 0,3.385 1.83945,6.02309 3.18945,7.62109 0.777,-3.217 2.66702,-5.20823 4.41602,-5.99023 -1.684,-2.236 -2.83911,-5.62578 -1.66211,-9.55078 z m 13.41992,21.95508 c -1.474,1.226 -2.27801,2.01432 -5.91601,2.73632 0.793,1.415 3.48634,4.62696 7.02734,4.62696 2.699,0 5.72284,-1.41055 7.58984,-4.18555 -4.707,0.044 -6.96317,-1.60173 -8.70117,-3.17773 z m -13.34375,68.80859 c -4.383,0 -7.00612,2.97845 -8.45312,6.31445 2.402,-0.097 4.0742,0.24369 5.4082,0.92969 0.231,-2.008 2.19598,-5.19809 5.95898,-6.87109 -0.632,-0.156 -1.66206,-0.37305 -2.91406,-0.37305 z m -5.47461,22.95703 c -2.407,0.875 -3.59375,3.0393 -3.59375,5.2793 0,2.996 1.70433,5.37756 4.23633,7.60156 0.815,-3.255 2.66692,-4.65364 3.79492,-5.30664 0.788,-2.295 -0.6965,-7.00222 -4.4375,-7.57422 z m 37.05274,7.08399 c -3.46,0 -3.21066,3.47589 -3.09766,5.46289 0.432,1.263 1.65592,3.12957 2.79492,4.39257 3.508,-2.456 4.06955,-3.88664 4.56055,-6.05664 -0.777,-2.495 -2.23481,-3.79882 -4.25781,-3.79882 z m -21.29102,9.05078 c -2.516,0 -3.3313,2.12626 -3.6543,2.82226 -0.346,3.131 3.06191,6.51052 6.75391,6.35352 -0.167,-1.948 0.2052,-4.07425 0.7832,-5.53125 -0.735,-2.165 -2.06281,-3.64453 -3.88281,-3.64453 z m 137.98633,2.44531 c -1.42,1.625 -3.01795,2.99023 -4.50195,2.99023 -5.933,0 -9.82483,-0.30273 -15.29883,-0.30273 -24.032,0 -41.73242,14.89417 -41.73242,31.95117 0,10.407 -0.45375,12.71144 -3.71875,16.27344 1.431,1.112 3.64882,1.83734 5.54882,1.77734 -3.201,8.491 -17.82951,11.25977 -21.35351,11.25977 -4.966,0 -5.09694,-4.60352 -10.71094,-4.60352 -3.638,0 -8.23047,1.64102 -8.23047,5.79102 0,1.89 0.45792,3.95776 1.16992,5.13476 -2.024,-1.117 -4.30226,-1.37109 -6.19726,-1.37109 -3.385,0 -7.125,3.08687 -7.125,7.29687 0,3.963 2.6069,7.98047 5.7539,7.98047 1.819,0 3.26672,-0.13029 4.76172,-0.52929 -2.807,3.821 -3.4274,7.31429 -0.4414,10.15429 0.583,-1.382 2.55787,-3.60156 6.42187,-3.60156 2.867,0 5.96005,2.67713 5.24805,6.70313 3.163,-0.761 7.71323,-3.3138 6.86523,-11.2168 2.483,0 5.11799,-0.69516 6.20899,-1.91016 0.583,2.569 2.14634,5.13831 5.27734,6.32032 0.858,-1.582 3.12597,-4.08594 5.79297,-4.08594 2.942,0 4.31873,1.29539 5.17773,2.65039 1.522,-2.073 2.41819,-3.83408 1.11719,-7.58008 4.34,-1.074 13.7151,-4.48425 18.7461,-7.90625 l 2.21875,4.3457 c 3.59,-1.382 7.05062,-4.48076 9.01562,-7.50976 1.76,2.375 1.88789,4.67567 2.08789,7.63867 6.985,-4.81 13.89649,-11.06161 13.89649,-22.22461 0,-10.181 -3.98438,-10.07798 -3.98438,-15.58398 0,-5.506 5.05299,-12.97657 13.20899,-12.97657 1.81299,0 2.64495,0.0378 3.62695,0.0918 1.339,-9.009 7.2547,-17.43103 13.9707,-19.83203 -2.718,-3.325 -7.27731,-5.744 -12.82031,-7.125 z m -99.9082,56.85351 c -4.324,0 -6.62927,3.73508 -6.94727,7.33008 1.29,-0.216 3.64442,-0.26512 4.98242,0.29688 -0.032,-3.337 2.38635,-5.3286 5.65235,-6.5586 -0.637,-0.48 -1.7015,-1.06836 -3.6875,-1.06836 z m -13.03125,15.24219 c -2.38,0.421 -6.20704,3.10389 -6.20704,7.71289 0,3.38 1.52672,5.86853 3.01172,7.64453 1.134,-2.812 2.64586,-3.85454 4.00586,-4.81054 -2.201,-3.093 -2.59154,-7.78888 -0.81054,-10.54688 z m 46.91015,15.64258 c -2.667,0 -4.37853,3.23061 -4.39453,3.22461 1.458,1.452 2.13877,2.77367 1.00977,5.88867 3.816,-0.108 7.9622,-2.94567 7.57422,-5.88867 0,0 -1.47946,-3.22461 -4.18946,-3.22461 z m -29.94922,4.28125 c -3.109,0 -4.68481,2.53198 -5.00781,3.70898 -0.06,2.791 2.715,5.68485 4.875,6.83985 1.657,-1.166 3.0075,-3.39736 3.5625,-4.56836 0.826,-2.127 0.0683,-5.98047 -3.42969,-5.98047 z m 96.39258,3.25586 c -5.722,0 -8.25289,4.99847 -6.96289,11.60547 1.446,-1.781 2.93781,-2.40339 4.50781,-2.77539 -0.383,-3.12 2.1909,-6.96908 5.41993,-8.20508 -0.589,-0.346 -1.81385,-0.625 -2.96485,-0.625 z m 52.81445,14.04492 c -1.566,0 -4.58281,2.40845 -4.25781,6.56445 1.339,0.615 2.50555,1.565 3.93555,4.875 2.046,-0.33 5.64062,-3.67687 5.64062,-6.79687 0,-0.647 -0.2807,-2.27345 -1.2207,-3.43945 -1.047,-0.831 -2.85566,-1.20313 -4.09766,-1.20313 z m -53.14257,11.06641 c -0.707,0 -1.72905,0.12995 -2.74805,0.50195 -1.35,1.096 -2.4082,2.59561 -2.4082,5.97461 0,2.688 1.44123,5.19859 3.11523,5.93359 2.229,-3.503 4.6318,-5.13339 5.8418,-5.77539 1.143,-3.169 -0.25978,-6.63476 -3.80078,-6.63476 z m 24.15625,5.70117 c -1.857,0 -3.24077,1.27336 -4.50977,3.44336 1.36,2.926 2.31741,5.80864 2.44141,8.55664 3.336,-2.057 5.33301,-4.81119 5.91601,-7.61719 -0.194,-2.042 -1.41265,-4.38281 -3.84765,-4.38281 z"
   sodipodi:nodetypes="sccccsccsccccsscsssssssscccscccccsscscccccccccccccccccscsccccsscsccscscssccccccccccccccscsscsccscssccccssscccccscsccscccsccccccccsscccccssscccccsccccscscccccssscscscscccsscccscssscscccccscscccscsccsscsccccccccscccssscscccccsccscccscscccscccsscccscsssccssscsssccsccccsccccccssscccscccscscccscccsscccsscccssccscsscsccsscccs" />
	
	<path
   d="m 391.705,682.346 c -4.621,-5.365 -14.219,-8.291 -21.106,-8.55 -0.026,0.021 0,-0.027 -0.064,0.07 8.248,1.98 11.697,5.101 13.991,8.204 3.292,-0.517 6.094,-0.21 7.179,0.276"
   id="path2950"
   style="fill:#ffffff" />
	
	<path
   id="path2954"
   style="display:inline;fill:#ffffff"
   d="M 311.66883 534.00905 C 308.42383 534.00905 304.6825 536.75535 304.6825 542.28835 C 304.6825 550.81735 312.5422 554.7532 320.2782 554.7532 C 327.3822 554.7532 334.15097 551.77423 337.16297 550.71023 C 340.18097 549.64223 344.39688 548.66335 347.04188 548.66335 C 351.77087 548.66335 353.4808 548.99938 355.5868 549.49538 C 355.6188 549.28538 355.67273 548.85348 355.67273 548.49148 C 355.67373 547.34748 355.51227 546.59105 355.31727 545.88405 C 353.85927 545.67305 352.1312 545.5071 348.1532 545.5071 C 343.2252 545.5071 338.73927 547.05621 335.31727 548.04421 C 331.88927 549.03121 329.96234 549.80398 325.14734 549.80398 C 315.71134 549.80398 312.0243 545.14496 312.0243 541.38796 C 312.0243 538.92096 312.88878 536.92491 314.54578 534.88991 C 313.77878 534.26391 312.69983 534.00905 311.66883 534.00905 z M 335.93836 545.36062 C 335.05736 545.63162 334.24216 545.59969 333.53016 545.5657 C 333.64916 545.92169 333.89283 546.46054 334.04383 546.65554 C 334.04383 546.64454 335.90162 546.17616 335.88563 546.17116 C 335.92363 545.99216 335.93836 545.58862 335.93836 545.36062 z M 337.02234 552.51882 C 337.02234 552.50182 335.46766 553.09437 335.46766 553.07937 C 335.32766 553.57537 335.20311 554.17687 335.53211 555.14187 C 336.01811 554.44087 336.66747 554.09434 337.72547 553.87234 C 337.36347 553.34934 337.16234 552.98782 337.02234 552.51882 z " />
	
	
	
	
	
	
	
	
	
	
	
	
	
	
	
	
	
	
	
	
	<path
   id="path2996"
   style="display:inline;opacity:1;fill:#837591;fill-opacity:1"
   d="m 464.29773,525.66335 c -1.75501,0.89101 -5.91613,3.43221 -8.32812,4.5332 -0.168,0.07 -0.33639,0.14643 -0.52539,0.23243 -5.581,2.526 -20.31102,9.04781 -17.66602,29.25781 -0.956,0.832 -2.03057,1.77087 -3.14257,2.79687 h 30.67187 c 14.035,-5.657 20.70117,-17.08615 20.70117,-29.28515 0,-0.977 -0.011,-1.88953 -0.043,-2.76953 h -10.0625 c -3.903,3.223 -8.51968,5.61354 -12.92968,7.06054 0.999,-1.878 1.81462,-4.26954 1.89062,-7.06054 0.038,-1.479 -0.12441,-3.07663 -0.56641,-4.76563 z m -136.96289,4.76563 c -0.567,0.432 -1.08454,0.80339 -1.43554,1.02539 -0.815,1.058 -1.00977,2.79711 -1.00977,4.28711 -10e-4,4.421 4.6418,8.22656 9.4668,8.22656 6.866,0 9.30025,-6.28874 8.90625,-9.17774 3.719,-0.291 14.32226,3.43444 14.32226,14.14844 0,6.699 -7.42339,7.40039 -10.02539,7.40039 -2.613,0 -4.54864,-0.78906 -7.43164,-0.78906 -2.872,0 -4.20508,1.00659 -4.20508,2.93359 0,1.592 1.15002,3.082 2.79102,4 1.036,0.583 2.27202,0.92188 3.54102,0.92188 1.301,0 2.11015,-0.41488 2.78515,-0.92188 1.021,-0.762 1.72797,-1.72461 3.29297,-1.72461 0.988,0 2.4275,0.34261 3.3125,1.72461 h 61.64649 c 0.016,-4.578 -0.42651,-7.33654 -1.0625,-8.81054 3.228,-0.173 5.99571,-0.61494 8.51171,-1.71094 -2.786,-2.678 -7.29179,-8.27088 -8.71679,-13.17188 -0.729,-2.478 -2.03013,-5.83532 -3.70313,-8.36132 z m -99.70312,0.002 c 0,0.038 -0.004,0.0861 -0.004,0.11914 0,3.115 2.34186,4.33066 4.50586,5.72266 1.425,0.907 2.96924,2.01892 3.86524,5.29492 -2.381,-1.327 -4.17258,-1.78711 -7.01758,-1.78711 -2.855,0 -6.78125,1.32823 -6.78125,6.24023 10e-4,6.152 4.59514,8.52313 9.74414,9.20313 -0.205,2.197 0.65897,4.98076 2.41797,7.25976 h 43.65429 c -3.001,-2.116 -5.31562,-4.00575 -6.26562,-5.34375 -8.221,-11.525 -15.21138,-15.83847 -15.10938,-22.10546 0.021,-1.322 0.48436,-2.91452 0.94336,-4.60352 h -10.82812 c 0.043,0.184 0.0975,0.34595 0.14648,0.50195 0.523,1.884 0.2595,4.55577 -0.0644,6.63477 -2.073,-2.235 -4.10245,-4.73972 -4.93945,-7.13672 z m 84.03711,3.57812 c -3.245,10e-6 -6.98633,2.74631 -6.98633,8.2793 0,8.529 7.8597,12.46485 15.5957,12.46485 7.104,0 13.87277,-2.97897 16.88477,-4.04297 3.018,-1.068 7.2339,-2.04688 9.87891,-2.04688 4.72899,0 6.43892,0.33603 8.54492,0.83203 0.032,-0.21 0.0859,-0.6419 0.0859,-1.0039 10e-4,-1.144 -0.16046,-1.90043 -0.35546,-2.60743 -1.458,-0.211 -3.18607,-0.37695 -7.16407,-0.37695 -4.928,0 -9.41393,1.54911 -12.83593,2.53711 -3.428,0.987 -5.35493,1.75977 -10.16993,1.75977 -9.436,0 -13.12304,-4.65902 -13.12304,-8.41602 0,-2.467 0.86448,-4.46305 2.52148,-6.49805 -0.767,-0.62599 -1.84596,-0.88085 -2.87695,-0.88086 z m 24.26953,11.35157 c -0.86899,0.27099 -1.69621,0.23807 -2.4082,0.20508 0.119,0.35599 0.36267,0.89484 0.51367,1.08984 0,-0.011 1.85778,-0.47938 1.8418,-0.48438 0.037,-0.17899 0.0527,-0.58254 0.0527,-0.81054 z m 1.08398,7.1582 c 0,-0.017 -1.55468,0.5775 -1.55468,0.5625 -0.141,0.496 -0.2645,1.09541 0.0644,2.06641 0.487,-0.708 1.13536,-1.05339 2.19336,-1.27539 -0.362,-0.523 -0.56313,-0.88452 -0.70313,-1.35352 z m -72.12695,40.65039 c 0.95,5.955 0.21563,11.13763 -1.60937,16.14063 3.39,0.546 8.32992,-1.058 9.54492,-4.75 3.163,5.236 3.42081,6.91595 3.50781,9.50195 2.057,-2.786 1.85772,-4.36808 3.88672,-8.33008 2.327,-4.546 5.80325,-9.1615 9.90625,-12.5625 z m 28.55469,0 c -5.106,3.309 -9.64053,8.73014 -12.26953,14.74414 -2.516,5.775 -3.21196,8.84706 -8.37696,11.03906 1.058,2.537 2.56971,4.61363 4.34571,6.26563 h 111.54492 c -1.437,-2.898 -2.54816,-7.26553 -1.28516,-10.64453 2.224,1.786 6.36908,3.09948 9.58008,2.39648 -0.686,-7.353 1.19461,-13.80772 3.34961,-16.63672 1.679,-2.197 2.93586,-4.82106 3.75586,-7.16406 z m 126.71875,0.002 c -0.027,0.702 -0.043,1.4203 -0.043,2.1543 0,9.365 5.99205,20.81758 13.12305,29.89258 h 9.41406 c -3.33,-3.169 -5.5332,-7.68078 -5.5332,-13.05078 0,-11.034 6.85498,-15.6981 14.83398,-18.9961 h -0.006 z m 60.61328,16.68555 c -2.035,2.969 -4.5005,4.3457 -8.0625,4.3457 -3.553,0 -8.24797,-2.15429 -12.91797,-2.15429 -8.771,0 -12.31836,6.11762 -12.31836,9.14062 0,1.457 0.0115,2.77325 0.18945,4.03125 h 14.3086 v -0.002 c 4.80999,-5.91599 18.80073,-5.49438 18.80078,-15.36133 z M 217.90906,655.9114 c 2.947,1.446 4.64385,5.6255 3.83985,8.3125 0.308,0.799 1.7747,1.59744 3.3457,1.14844 -0.486,2.024 -1.66702,6.33742 1.45898,8.85742 1.204,-2.256 2.80561,-3.02149 5.09961,-3.02149 2.311,0 4.28189,2.15289 4.83789,3.71289 1.506,-0.346 3.20118,-1.77057 3.20118,-3.76757 0,-3.951 2.01446,-6.62285 3.73046,-6.71485 0.534,2.43 2.66702,3.2172 4.41602,3.78321 -0.281,-4.323 2.62706,-5.71094 4.53906,-5.71094 3.044,0 4.34038,1.31762 5.48438,3.51562 1.764,-0.668 2.86578,-2.591 2.80078,-4.75 -0.076,-2.159 -0.44214,-3.06151 -1.61914,-4.10351 0.302,-0.334 0.99284,-0.79172 1.96484,-1.26172 z m 61.78711,0 c 2.127,0.987 4.03738,2.27764 6.23438,3.68164 1.155,-0.784 2.26178,-1.99264 2.80078,-3.68164 z m 13.45703,0 c 1.625,1.522 3.19666,3.87569 4.97266,6.30469 1.565,-0.869 3.83726,-3.51969 4.44727,-6.30469 z m 18.94727,0 c 1.846,0.777 3.53612,1.7387 5.32812,2.8457 1.296,-0.626 2.19113,-1.6577 2.82813,-2.8457 z m 14.63281,0 c 13.668,11.174 27.45449,14.59623 44.77149,15.74023 14.888,0.978 23.56193,9.63033 24.83593,13.98633 -2.326,-1.215 -5.23484,-1.8125 -8.96484,-1.8125 -3.558,0 -6.84638,1.56991 -9.60938,4.12891 h 63.81641 c -0.594,-0.366 -1.19845,-0.77096 -1.81445,-1.25196 1.469,-1.522 2.21875,-3.98251 2.21875,-6.97851 0,-9.707 -8.39327,-16.8815 -19.69727,-23.8125 z m 144.45703,0 c 1.998,2.904 3.22852,6.26189 3.22852,10.21289 0,10.051 -5.26292,18.11708 -13.29492,21.83008 h 23.94531 c 0.912,-0.944 1.94355,-1.92127 3.18555,-2.94727 -3.363,-1.884 -7.59665,-1.3327 -11.05664,1.2793 9.235,-11.276 5.83007,-23.56152 5.83007,-29.22852 0,-0.389 0.0115,-0.76848 0.0605,-1.14648 z m -100.59179,17.88281 -0.002,0.002 -0.002,0.002 -0.002,0.002 h -0.002 -0.002 v 0.002 h -0.002 l -0.002,-0.002 h -0.002 v 0.002 h -0.002 l -0.002,0.002 -0.002,0.002 c -0.006,0.007 -0.019,0.0222 -0.043,0.0586 8.247,1.982 11.69624,5.10208 13.99024,8.20508 3.293,-0.518 6.09664,-0.20961 7.18164,0.27539 -4.62095,-5.36494 -14.22044,-8.29172 -21.10742,-8.55078 z m -1.4668,1.79883 c -1.42,1.625 -3.01795,2.99023 -4.50195,2.99023 -5.933,0 -9.82483,-0.30273 -15.29883,-0.30273 -12.075,0 -22.55224,3.76883 -29.99024,9.67383 h 55.35547 c 2.142,-2.45 4.63591,-4.30833 7.25391,-5.23633 -2.716,-3.325 -7.27536,-5.743 -12.81836,-7.125 z m -61.80274,43.04492 c -0.399,3.784 -1.34421,5.56328 -3.44921,7.86328 1.431,1.117 3.64882,1.84125 5.54882,1.78125 -3.201,8.491 -17.82951,11.25977 -21.35351,11.25977 -4.966,0 -5.09694,-4.60352 -10.71094,-4.60352 -3.638,0 -8.23047,1.64297 -8.23047,5.79297 0,1.89 0.45792,3.95581 1.16992,5.13281 -2.024,-1.117 -4.30226,-1.38086 -6.19726,-1.38086 -3.072,0 -6.43958,2.56803 -7.01758,6.20704 h 67.57227 c 1.199,-0.632 2.3,-1.27888 3.25,-1.92188 l 0.98242,1.92188 h 5.45703 c 1.933,-1.46902 3.62197,-3.29199 4.79297,-5.08399 1.226,1.646 1.65704,3.25998 1.87304,5.08399 h 3.68165 c 5.63499,-4.491 10.42968,-10.37393 10.42968,-19.66993 0,-7.74 -2.30025,-9.53781 -3.40625,-12.38281 z m 63.86329,0 c 1.322,4.248 3.7729,8.5332 8.2539,13.2832 7.751,8.238 9.78516,9.2423 9.78516,17.2793 4.271,-1.22 5.39883,-3.29887 6.54883,-6.04687 0.027,2.786 0.62157,5.3891 1.64257,7.53711 h 8.87891 c 1.112,-1.409 2.29516,-2.48852 3.66016,-3.35352 0.043,1.15 0.0207,2.26251 -0.0703,3.35352 h 42.0293 c 0.54,-4.77202 2.17578,-7.53724 2.17578,-12.74024 0,-6.375 -4.58272,-11.58984 -10.38672,-11.58984 -3.827,0 -7.11982,1.51248 -8.79882,3.39648 -5.69,0 -11.50449,-4.84114 -13.77149,-11.11914 z m -1.875,62.51172 c 0.418,2.214 1.97725,3.79558 3.65625,4.76758 -4.75,2.472 -5.32071,4.97836 -4.97071,8.44336 5.922,-1.188 8.34525,4.31786 7.28125,7.88086 3.644,0.783 6.32056,-0.9078 8.22657,-2.5918 0.583,1.781 2.25053,3.45414 4.26953,3.99414 1.269,-2.164 3.24078,-3.74609 5.67578,-3.74609 2.435,0 4.45251,0.93462 5.47851,4.26562 2.759,-0.556 6.02892,-5.59273 4.41993,-9.05273 2.786,-0.75 5.57065,-4.69663 5.72265,-7.39063 1.867,2.396 4.3185,4.25831 6.9375,3.07031 -0.254,-4.62 3.68841,-7.97265 6.31641,-7.97265 1.544,0 2.80692,0.19389 3.79492,0.71289 0.318,-0.594 0.58289,-1.43686 0.58789,-2.38086 z"
   sodipodi:nodetypes="ccccccsccccccccscsssscscsccccccccsccsccccccccccccscscscccscsscsccccccccccccccccccccccccccccsccsccccsssscccccccscsccsccccccccccccccccccccscccscccsccccscccccccccccccccccccccsscccscccssscsccccccccscccccccccccsscccccccccsccccscccccsccs" />
	
	
	
	
	
	
	
	
	
	
	
	
	
	
	
	
	
	
	
	
	<path
   id="path3038"
   style="display:inline;fill:#837591;fill-opacity:1"
   d="m 271.79383,406.47585 c -2.515,0.96 -4.81147,3.87053 -5.35547,6.01953 l -0.25391,1.01367 -0.95507,-0.4082 c -1.166,-0.502 -2.45113,-0.73437 -2.95313,-0.73437 -0.848,0 -1.08953,0.0976 -1.14453,0.18359 -0.545,0.783 1.18214,5.77111 1.74414,7.41211 l 0.55078,1.58203 -1.62109,-0.41601 c -0.982,-0.265 -2.50896,-0.39844 -3.50196,-0.39844 -1.49,0 -1.49023,0.12325 -1.49023,0.90625 0,1.506 1.1062,2.82256 2.2832,4.22656 1.29,1.544 2.61914,3.13187 2.61914,5.17188 0,1.771 -1.20498,3.66992 -3.83398,3.66992 -2.396,0 -3.82728,-1.47888 -4.98828,-2.67188 l -0.31836,-0.31836 c -1.35,-1.355 -3.9233,-2.94531 -6.7793,-2.94531 -2.883,0 -2.88281,-3.6e-4 -2.88281,3.68164 0,4.383 2.41839,9.877 5.90039,13.375 l 0.41992,0.43164 -0.23633,0.57227 c -1.252,2.834 -1.69531,5.76615 -1.69531,7.03515 0,2.845 0.19252,3.04883 2.97852,3.04883 3.53,0 6.74689,-2.37415 9.33789,-4.28515 2.078,-1.53301 3.71915,-2.73047 5.28515,-2.73047 2.208,0 3.36914,1.75404 3.36914,3.49804 0,4.356 -5.50601,8.68502 -15.54101,12.29102 -1.706,0.675 -3.50969,1.09475 -8.05469,2.84375 l -1.44141,0.61133 c -5.814,2.392 -9.62003,4.76547 -11.95703,7.48047 l -0.67382,0.77734 -0.66407,-0.79297 c -2.311,-2.683 -5.93312,-4.96666 -11.70312,-7.34766 -1.436,0.686 -3.08253,1.44208 -6.01953,2.70508 3.595,1.825 5.65234,3.36357 5.65234,5.22657 0,2.154 -2.55983,4.46874 -8.17383,4.46875 -5.76,0 -7.80469,-2.30975 -7.80469,-4.46875 0,-2.69401 3.05527,-4.19016 7.69727,-6.16016 0,0 5.29569,-2.21881 6.42969,-2.75781 1.128,-0.54 4.20508,-2.22461 4.20508,-2.22461 2.715,-1.539 5.97473,-3.61608 9.55273,-7.33008 l 0.61523,-0.64844 0.64258,0.63672 c 3.833,3.859 6.98078,5.8848 9.55078,7.3418 l 2.23243,1.19726 c 2.203,-0.939 3.80093,-1.52784 5.08593,-1.96484 -8.016,-3.304 -14.79565,-8.1121 -17.47265,-12.37109 -2.694,4.46899 -9.94928,9.52125 -18.48828,12.78125 -0.426,0.16699 -5.46382,1.9339 -9.38282,3.5039 -5.884,2.602 -8.18164,5.21392 -8.18164,9.29492 0,5.349 4.23585,8.23242 8.21485,8.23243 h 303.96093 c 3.984,0 8.20508,-2.88343 8.20508,-8.23243 0,-3.995 -2.21303,-6.58467 -7.83203,-9.13867 -1.388,0.648 -3.02858,1.36542 -5.51758,2.48242 3.595,1.608 5.84766,3.03947 5.84766,5.35547 0,3.05 -2.48292,4.46875 -7.79492,4.46875 -5.431,0 -8.18555,-1.50575 -8.18555,-4.46875 0,-2.17 2.77536,-3.89744 7.56836,-6.14844 0,0 5.64561,-2.57517 6.97461,-3.20117 1.327,-0.637 4.875,-2.33789 4.875,-2.33789 7.962,-4.075 10.02344,-7.76678 10.02344,-17.92578 v -0.11914 c 0,0 9.15579,-35.31938 9.71679,-37.48437 -2.753,0.30799 -4.88539,2.8397 -5.77539,4.4707 l -0.008,0.006 -0.50195,0.91601 -0.81836,-0.63672 c -0.993,-0.772 -2.18869,-1.32717 -2.67969,-1.45117 -0.81,-0.216 -1.06744,-0.184 -1.14844,-0.125 -0.734,0.621 -0.30211,5.8941 -0.16211,7.6211 l 0.13086,1.67382 -1.45312,-0.82617 c -0.896,-0.507 -2.33197,-1.02443 -3.29297,-1.27343 -1.053,-0.275 -1.33272,-0.1834 -1.38672,-0.1504 -0.044,0.027 -0.15139,0.12849 -0.27539,0.64649 -0.378,1.452 0.36153,3.01769 1.14453,4.67969 0.858,1.803 1.74919,3.6882 1.24219,5.6582 -0.453,1.716 -2.08372,3.25398 -4.63672,2.58398 -2.3,-0.615 -3.31963,-2.40261 -4.14063,-3.84961 l -0.23242,-0.39843 c -0.972,-1.663 -3.07122,-3.85413 -5.82422,-4.57813 -1.042,-0.27 -2.08842,-0.51825 -2.48242,-0.28125 -0.47,0.275 -0.86419,1.63024 -1.24219,3.11524 -1.09,4.232 -0.11776,10.16545 2.36524,14.43945 l 0.3125,0.53516 -0.38867,0.48046 c -1.911,2.418 -3.06563,5.14291 -3.39063,6.37891 -0.712,2.753 -0.57276,2.99613 2.11524,3.70313 3.423,0.896 7.13023,-0.57849 10.11523,-1.77149 2.386,-0.95 4.28588,-1.70564 5.79688,-1.30664 2.257,0.61 2.4414,1.73806 2.4414,3.16406 0,4.426 -5.71765,8.84138 -16.09765,12.48438 -0.281,0.092 -4.53329,1.43597 -8.73829,3.16797 -5.819,2.386 -9.92787,4.84339 -12.29687,7.65039 l -0.67578,0.80273 -0.68164,-0.80273 c -2.224,-2.683 -5.77427,-4.93506 -11.44727,-7.28906 -1.571,0.73399 -3.36337,1.52318 -6.35937,2.86718 3.53,1.609 5.61914,2.91411 5.61914,4.91211 0,2.958 -2.57964,4.45313 -7.68164,4.45313 -5.096,0 -7.68164,-1.49513 -7.68164,-4.45313 0,-2.321 2.96334,-3.84414 7.15234,-5.74414 0,0 5.12747,-2.26617 6.73047,-3.07617 1.587,-0.81 4.44336,-2.32227 4.44336,-2.32227 2.586,-1.463 5.72769,-3.48084 9.55469,-7.33984 l 0.64062,-0.63672 0.62695,0.64649 c 3.578,3.708 6.83579,5.79303 9.55079,7.33203 l 2.01367,1.04687 c 2.191,-0.939 3.82122,-1.4519 5.07422,-1.8789 -8.011,-3.26 -14.72802,-8.04764 -17.29102,-12.30664 -2.705,4.302 -9.56097,9.14326 -17.66797,12.44726 -2.051,0.939 -6.93119,2.56836 -10.74219,4.19336 -5.063,2.175 -9.96423,5.54355 -12.49023,8.68555 l -0.69727,0.85351 -0.68554,-0.85351 c -2.553,-3.179 -6.548,-6.05655 -11.875,-8.56055 -1.388,0.691 -2.8818,1.40308 -5.5918,2.58008 3.314,1.592 5.4082,2.96259 5.4082,4.93359 0,2.969 -2.66034,4.47461 -7.90234,4.47461 -5.252,0 -7.9082,-1.50561 -7.9082,-4.47461 0,-2.375 2.93161,-3.76698 7.72461,-5.83398 0,0 4.53481,-1.95885 6.13281,-2.71485 1.598,-0.761 4.47461,-2.34961 4.47461,-2.34961 2.564,-1.458 6.33786,-3.81515 9.50586,-7.53515 l 0.67578,-0.78906 0.67578,0.78906 c 3.174,3.719 6.94072,6.07715 9.51172,7.53515 l 2.4375,1.26954 c 2.462,-1.053 4.27158,-1.66293 5.64258,-2.16993 -9.527,-3.536 -14.74219,-7.75114 -14.74219,-11.99414 0,-1.744 1.16005,-3.49804 3.37305,-3.49804 1.561,0 3.19739,1.19746 5.27539,2.73047 2.591,1.911 5.80751,4.2871 9.35351,4.2871 2.78,0 2.96875,-0.20678 2.96875,-3.05078 0,-1.269 -0.44736,-4.1992 -1.69336,-7.0332 l -0.24414,-0.57227 0.43164,-0.43164 c 3.477,-3.498 5.90625,-8.99395 5.90625,-13.37695 0,-3.682 -5.3e-4,-3.68164 -2.89453,-3.68164 -2.855,0 -5.43615,1.59227 -6.78515,2.94727 l -0.31836,0.31836 c -1.155,1.19299 -2.59143,2.67187 -4.98243,2.67187 -2.634,0 -3.82617,-1.90087 -3.82617,-3.67187 0,-2.041 1.32228,-3.62593 2.61328,-5.16993 1.171,-1.403 2.27735,-2.71956 2.27735,-4.22656 0,-0.793 -2.4e-4,-0.9082 -1.49024,-0.9082 -0.993,0 -2.5109,0.13553 -3.5039,0.39453 l -1.61914,0.41992 0.55664,-1.58203 c 0.572,-1.646 2.30028,-6.62702 1.73828,-7.41602 -0.054,-0.081 -0.29777,-0.18359 -1.13477,-0.18359 -0.513,0 -1.79103,0.23823 -2.95703,0.74023 l -0.95508,0.39844 -0.2539,-1.0039 c -0.54,-2.148 -2.85233,-5.05854 -5.36133,-6.01954 -2.51,0.96 -4.81338,3.87054 -5.35938,6.01954 l -0.2539,1.0039 -0.94922,-0.39844 c -1.166,-0.502 -2.44989,-0.74023 -2.96289,-0.74023 -0.837,0 -1.08063,0.0976 -1.14063,0.18359 -0.557,0.789 1.172,5.77002 1.75,7.41602 l 0.55078,1.58203 -1.61914,-0.41992 c -0.987,-0.259 -2.5109,-0.39453 -3.5039,-0.39453 -1.49,0 -1.49024,0.1252 -1.49024,0.9082 0,1.506 1.10621,2.82256 2.28321,4.22656 1.279,1.544 2.60742,3.12992 2.60742,5.16993 0,1.771 -1.19231,3.67187 -3.82031,3.67187 -2.397,0 -3.83329,-1.47888 -4.98829,-2.67187 l -0.31836,-0.31836 c -1.35,-1.355 -3.93929,-2.94727 -6.77929,-2.94727 -2.893,0 -2.89453,-3.6e-4 -2.89453,3.68164 0,4.372 2.43039,9.87895 5.90039,13.37695 l 0.43164,0.43164 -0.24805,0.57227 c -1.23,2.834 -1.68359,5.7642 -1.68359,7.0332 0,2.845 0.18775,3.05078 2.96875,3.05078 3.541,0 6.76837,-2.3761 9.35937,-4.2871 2.067,-1.53301 3.70844,-2.73047 5.27344,-2.73047 2.208,0 3.36328,1.75404 3.36328,3.49804 0,4.356 -5.51836,8.69088 -15.56836,12.29688 -1.7,0.68 -5.92723,2.09425 -9.36523,3.40625 -4.2,1.608 -9.68822,4.7663 -12.07422,7.5293 l -0.66992,0.7832 -0.66407,-0.78906 c -2.267,-2.667 -5.84615,-4.91554 -11.53515,-7.26954 -1.576,0.734 -3.30547,1.49924 -6.35547,2.86524 3.611,1.63 5.76562,2.94266 5.76562,4.97266 0,3.05 -2.51,4.4746 -7.875,4.4746 -5.371,0 -7.86914,-1.4246 -7.86914,-4.4746 0,-2.429 3.01639,-3.95243 7.27539,-5.85743 0,0 4.86319,-2.06589 6.74219,-2.96289 1.862,-0.901 4.31836,-2.32226 4.31836,-2.32226 2.574,-1.468 5.72183,-3.48085 9.54883,-7.33985 l 0.61523,-0.62109 0.63672,0.61523 c 3.282,3.212 6.14355,5.40366 9.56055,7.34766 l 2.07226,1.08984 c 2.219,-0.934 3.85296,-1.44595 5.12696,-1.87695 -8.064,-3.266 -14.81539,-8.0668 -17.40039,-12.3418 -2.699,4.345 -9.53464,9.18888 -17.55664,12.42188 -0.826,0.372 -6.63399,2.28383 -10.83399,4.04883 -5.83,2.456 -10.0992,5.26137 -12.5332,8.35937 l -0.6582,0.85352 -0.70118,-0.82617 c -2.569,-2.996 -6.45601,-5.72814 -11.54101,-8.11914 -1.354,0.66399 -2.91024,1.38831 -5.61524,2.57031 3.352,1.603 5.45899,2.98494 5.45899,4.96094 0,2.04 -1.36549,4.4746 -7.89649,4.4746 -6.542,0 -7.90429,-2.43461 -7.90429,-4.4746 0,-2.375 2.92575,-3.76894 7.71875,-5.83594 0,0 4.35157,-1.89499 6.39258,-2.83399 2.035,-0.934 4.21679,-2.22851 4.21679,-2.22851 2.564,-1.452 6.33186,-3.8153 9.50586,-7.5293 l 0.67383,-0.79492 0.67578,0.79492 c 3.157,3.714 6.94086,6.0773 9.50586,7.5293 l 2.12695,1.17578 c 2.488,-1.069 4.32308,-1.69406 5.70508,-2.16406 -9.354,-3.53 -14.48828,-7.70821 -14.48828,-11.90821 0,-1.744 1.16686,-3.49804 3.38086,-3.49804 1.554,0 3.18748,1.19746 5.27148,2.73047 2.586,1.911 5.81471,4.2871 9.34571,4.2871 2.785,0 2.97851,-0.20678 2.97851,-3.05078 0,-1.269 -0.45345,-4.1992 -1.68945,-7.0332 l -0.25391,-0.57227 0.4336,-0.43164 c 3.476,-3.498 5.90429,-8.99395 5.90429,-13.37695 0,-3.682 -4.3e-4,-3.68164 -2.89843,-3.68164 -2.84,0 -5.4253,1.59227 -6.7793,2.94727 l -0.30859,0.31836 c -1.166,1.19299 -2.60105,2.67187 -4.99805,2.67187 -2.623,0 -3.82227,-1.90088 -3.82227,-3.67187 0,-2.041 1.32914,-3.62593 2.61914,-5.16993 1.166,-1.403 2.27735,-2.71956 2.27735,-4.22656 0,-0.783 -3.8e-4,-0.9082 -1.48438,-0.9082 -0.993,0 -2.52176,0.13443 -3.50976,0.39844 l -1.60742,0.41601 0.53906,-1.58203 c 0.572,-1.641 2.30114,-6.62811 1.74414,-7.41211 -0.06,-0.086 -0.30167,-0.18359 -1.13867,-0.18359 -0.513,0 -1.79299,0.23237 -2.95899,0.73437 l -0.95508,0.41016 -0.24804,-1.01563 c -0.545,-2.148 -2.85024,-5.05658 -5.36524,-6.01758 -2.511,0.96 -4.82037,3.86858 -5.35937,6.01758 l -0.25586,1.01563 -0.94922,-0.41016 c -1.171,-0.502 -2.44989,-0.73437 -2.96289,-0.73437 -0.836,0 -1.08091,0.0976 -1.12891,0.18359 -0.567,0.783 1.16238,5.77111 1.73438,7.41211 l 0.55469,1.58203 -1.61719,-0.41601 c -0.994,-0.265 -2.51091,-0.39844 -3.50391,-0.39844 -1.484,0 -1.48437,0.1252 -1.48437,0.9082 0,1.506 1.10048,2.82256 2.27148,4.22656 1.29,1.544 2.61328,3.12993 2.61328,5.16993 0,1.771 -1.19326,3.67187 -3.82226,3.67187 -2.396,0 -3.82633,-1.47887 -4.98633,-2.67187 l -0.31836,-0.31836 c -1.349,-1.355 -3.92525,-2.94727 -6.78125,-2.94727 -2.898,0 -2.89649,-3.6e-4 -2.89649,3.68164 0,4.383 2.4283,9.87895 5.9043,13.37695 l 0.43164,0.43164 -0.24219,0.57227 c -1.242,2.834 -1.6914,5.7642 -1.6914,7.0332 0,2.845 0.1857,3.05078 2.9707,3.05078 3.541,0 6.76352,-2.37611 9.35352,-4.2871 2.073,-1.53301 3.71429,-2.73047 5.27929,-2.73047 2.208,0 3.36329,1.75404 3.36329,3.49804 0,4.577 -6.1014,9.14466 -17.1504,12.84766 0,0 -4.96006,1.68947 -7.78906,2.85547 -5.646,2.343 -9.81259,4.85169 -12.18359,7.67969 l -0.68555,0.81054 -0.67969,-0.82617 c -2.229,-2.709 -5.8357,-5.00439 -11.5957,-7.40039 -1.506,0.755 -3.10872,1.53292 -6.26172,2.91992 3.536,1.609 5.61328,2.9322 5.61328,4.90821 0,2.99599 -2.53023,4.45703 -7.74023,4.45703 -5.209,0 -7.74219,-1.46203 -7.74219,-4.45703 0,-2.41801 2.96544,-3.93083 7.14844,-5.79883 0,0 4.78281,-2.06155 6.88281,-3.06055 2.1,-1.009 4.29688,-2.2832 4.29688,-2.2832 2.585,-1.458 5.72754,-3.4828 9.56054,-7.3418 l 0.61524,-0.62109 0.63672,0.61718 c 3.276,3.207 6.13854,5.40171 9.56054,7.34571 l 1.97071,1.09765 c 2.208,-0.917 3.89092,-1.47425 5.16992,-1.90625 -8.038,-3.266 -14.76875,-8.06507 -17.34375,-12.33007 -2.715,4.372 -9.56977,9.22598 -17.63477,12.45898 -2.64,1.085 -5.49958,1.88308 -10.89258,4.08008 -5.387,2.208 -10.01278,5.26442 -12.42578,8.35742 l -0.66406,0.86328 -0.70703,-0.83203 c -2.499,-2.91 -6.47841,-5.64042 -11.81641,-8.10742 -1.366,0.664 -2.89765,1.38159 -5.59765,2.55859 3.282,1.577 5.34375,2.93134 5.34375,4.90235 0,3.05 -2.49427,4.46875 -7.82227,4.46875 -5.339,0 -7.82812,-1.41876 -7.82812,-4.46875 0,-2.332 2.88867,-3.74674 7.63867,-5.80274 0,0 4.75537,-2.03083 6.10937,-2.67383 1.366,-0.637 4.58789,-2.42383 4.58789,-2.42383 2.564,-1.452 6.337,-3.81529 9.5,-7.52929 l 0.67579,-0.79297 0.67578,0.79297 c 3.163,3.714 6.94076,6.07729 9.50976,7.52929 l 2.22461,1.20508 c 2.478,-1.069 4.3408,-1.66829 5.7168,-2.15429 -9.43,-3.536 -14.59766,-7.73432 -14.59766,-11.94532 0,-1.744 1.16114,-3.49804 3.36914,-3.49804 1.565,0 3.19516,1.19746 5.28516,2.73047 2.575,1.911 5.80775,4.28515 9.34375,4.28515 2.78,0 2.97461,-0.20483 2.97461,-3.04883 0,-1.269 -0.45831,-4.20115 -1.69531,-7.03515 l -0.24805,-0.57227 0.43164,-0.43164 c 3.477,-3.498 5.89648,-8.992 5.89648,-13.375 0,-3.682 -8.1e-4,-3.68164 -2.88281,-3.68164 -2.845,0 -5.43015,1.59031 -6.78515,2.94531 l -0.3086,0.31836 c -1.16,1.193 -2.60619,2.67188 -4.99219,2.67188 -2.628,0 -3.82812,-1.89892 -3.82812,-3.66992 0,-2.041 1.32914,-3.62788 2.61914,-5.17188 1.166,-1.403 2.28125,-2.71956 2.28125,-4.22656 0,-0.783 8.6e-4,-0.90625 -1.49414,-0.90625 -0.988,0 -2.51691,0.13443 -3.50391,0.39844 l -1.61718,0.41601 0.54882,-1.58203 c 0.572,-1.641 2.301,-6.62811 1.75,-7.41211 -0.07,-0.086 -0.30853,-0.18359 -1.14453,-0.18359 -0.508,0 -1.78712,0.23237 -2.95312,0.73437 l -0.96094,0.4082 -0.24805,-1.01367 c -0.545,-2.148 -2.83823,-5.05853 -5.36523,-6.01953 z m -93.08399,3.50586 c 0.556,2.165 9.7168,37.48438 9.7168,37.48438 v 0.11914 c 0,10.17 2.04958,13.85273 10.01758,17.92773 l 3.73047,1.8125 c 2.235,-0.956 3.8389,-1.57492 5.1289,-2.04492 -9.322,-3.518 -14.42773,-7.70286 -14.42773,-11.88086 0,-1.425 0.17636,-2.55406 2.44336,-3.16406 1.512,-0.399 3.40197,0.35564 5.79297,1.30664 2.985,1.193 6.69323,2.66748 10.11523,1.77148 1.414,-0.367 2.11689,-0.70098 2.33789,-1.08398 0.221,-0.394 0.16121,-1.14014 -0.21679,-2.61914 -0.324,-1.236 -1.48354,-3.96091 -3.39454,-6.37891 l -0.3789,-0.48047 0.31445,-0.53515 c 2.472,-4.275 3.43752,-10.20846 2.35352,-14.43946 -0.383,-1.484 -0.76719,-2.83923 -1.24219,-3.11523 -0.389,-0.237 -1.44542,0.0163 -2.48242,0.28125 -2.753,0.723 -4.85932,2.92012 -5.82031,4.57812 l -0.23047,0.41016 c -0.815,1.436 -1.83525,3.22289 -4.15625,3.83789 -2.537,0.669 -4.17824,-0.86798 -4.61524,-2.58398 -0.513,-1.965 0.37847,-3.84521 1.23047,-5.65821 0.788,-1.663 1.52044,-3.22769 1.14844,-4.67968 -0.14,-0.518 -0.23544,-0.62049 -0.27344,-0.64649 -0.064,-0.033 -0.34153,-0.12561 -1.39453,0.15039 -0.956,0.249 -2.40197,0.7673 -3.29297,1.2793 l -1.45703,0.82031 0.13477,-1.67383 c 0.14599,-1.727 0.56798,-7.00009 -0.16602,-7.62109 -0.065,-0.064 -0.33049,-0.092 -1.14648,0.125 -0.48501,0.124 -1.68265,0.67917 -2.68165,1.45117 l -0.82031,0.63672 -0.50195,-0.91602 c -0.891,-1.63 -3.02363,-4.1627 -5.76563,-4.4707 z"
   sodipodi:nodetypes="ccccsccccsscssccsscccsscssccccccccsssccccccccccccscssccssscccsccccccccccccsccccccccccccccccscccccccsssccccccccccccccsccssscccccccccsscsscccssccsscssccccscccccccsccccsscssccsscccsscsscccccccssscccccccccccccccccssscccccscccsscsscccssccsscssccccscccccccsccccsscssccsscccsscssccccsccssscccccccccccccccccssscccccccccsscsscccssccsscssccccscccccccscccscccccccccccccccccccccccccccc" />
	
	
	
	
	
	
	
	
	
	
	
</g></g>
</svg>
