<?xml version="1.0" encoding="UTF-8" standalone="no"?>
<!-- Created with Inkscape (http://www.inkscape.org/) -->

<svg
   width="168.78688"
   height="120.66582"
   viewBox="0 0 168.78688 120.66582"
   version="1.1"
   id="svg1"
   xml:space="preserve"
   inkscape:version="1.4.2 (ebf0e940d0, 2025-05-08)"
   sodipodi:docname="network_analysis_cover.svg"
   xmlns:inkscape="http://www.inkscape.org/namespaces/inkscape"
   xmlns:sodipodi="http://sodipodi.sourceforge.net/DTD/sodipodi-0.dtd"
   xmlns="http://www.w3.org/2000/svg"
   xmlns:svg="http://www.w3.org/2000/svg"><sodipodi:namedview
     id="namedview1"
     pagecolor="#ffffff"
     bordercolor="#666666"
     borderopacity="1.0"
     inkscape:showpageshadow="2"
     inkscape:pageopacity="0.0"
     inkscape:pagecheckerboard="0"
     inkscape:deskcolor="#d1d1d1"
     inkscape:document-units="px"
     inkscape:zoom="2.3344698"
     inkscape:cx="73.464218"
     inkscape:cy="33.198116"
     inkscape:window-width="1920"
     inkscape:window-height="1011"
     inkscape:window-x="0"
     inkscape:window-y="32"
     inkscape:window-maximized="1"
     inkscape:current-layer="layer1" /><defs
     id="defs1"><filter
       style="color-interpolation-filters:sRGB"
       inkscape:label="Greyscale"
       id="filter3"
       x="0"
       y="0"
       width="1"
       height="1"><feColorMatrix
         values="0.21 0.72 0.072 0 0 0.21 0.72 0.072 0 0 0.21 0.72 0.072 0 0 0 0 0 1 0 "
         id="feColorMatrix3" /></filter><filter
       style="color-interpolation-filters:sRGB"
       inkscape:label="Greyscale"
       id="filter1"
       x="0"
       y="0"
       width="1"
       height="1"><feColorMatrix
         values="0.21 0.72 0.072 0 0 0.21 0.72 0.072 0 0 0.21 0.72 0.072 0 0 0 0 0 1 0 "
         id="feColorMatrix1" /></filter><filter
       style="color-interpolation-filters:sRGB"
       inkscape:label="Greyscale"
       id="filter2"
       x="0"
       y="0"
       width="1"
       height="1"><feColorMatrix
         values="0.21 0.72 0.072 0 0 0.21 0.72 0.072 0 0 0.21 0.72 0.072 0 0 0 0 0 1 0 "
         id="feColorMatrix2" /></filter><filter
       style="color-interpolation-filters:sRGB"
       inkscape:label="Greyscale"
       id="filter6"
       x="0"
       y="0"
       width="1"
       height="1"><feColorMatrix
         values="0.21 0.72 0.072 0 0 0.21 0.72 0.072 0 0 0.21 0.72 0.072 0 0 0 0 0 1 0 "
         id="feColorMatrix6" /></filter><filter
       style="color-interpolation-filters:sRGB"
       inkscape:label="Greyscale"
       id="filter1-5"
       x="0"
       y="0"
       width="1"
       height="1"><feColorMatrix
         values="0.21 0.72 0.072 0 0 0.21 0.72 0.072 0 0 0.21 0.72 0.072 0 0 0 0 0 1 0 "
         id="feColorMatrix1-3"
         result="fbSourceGraphic" /><feColorMatrix
         result="fbSourceGraphicAlpha"
         in="fbSourceGraphic"
         values="0 0 0 -1 0 0 0 0 -1 0 0 0 0 -1 0 0 0 0 1 0"
         id="feColorMatrix3-5" /><feColorMatrix
         id="feColorMatrix4"
         values="0.21 0.72 0.072 0 0 0.21 0.72 0.072 0 0 0.21 0.72 0.072 0 0 0 0 0 1 0 "
         in="fbSourceGraphic"
         result="fbSourceGraphic" /><feColorMatrix
         result="fbSourceGraphicAlpha"
         in="fbSourceGraphic"
         values="0 0 0 -1 0 0 0 0 -1 0 0 0 0 -1 0 0 0 0 1 0"
         id="feColorMatrix8" /><feColorMatrix
         id="feColorMatrix9"
         values="0.21 0.72 0.072 0 0 0.21 0.72 0.072 0 0 0.21 0.72 0.072 0 0 0 0 0 1 0 "
         in="fbSourceGraphic" /></filter><filter
       style="color-interpolation-filters:sRGB"
       inkscape:label="Greyscale"
       id="filter2-6"
       x="0"
       y="0"
       width="1"
       height="1"><feColorMatrix
         values="0.21 0.72 0.072 0 0 0.21 0.72 0.072 0 0 0.21 0.72 0.072 0 0 0 0 0 1 0 "
         id="feColorMatrix2-2"
         result="fbSourceGraphic" /><feColorMatrix
         result="fbSourceGraphicAlpha"
         in="fbSourceGraphic"
         values="0 0 0 -1 0 0 0 0 -1 0 0 0 0 -1 0 0 0 0 1 0"
         id="feColorMatrix5" /><feColorMatrix
         id="feColorMatrix7"
         values="0.21 0.72 0.072 0 0 0.21 0.72 0.072 0 0 0.21 0.72 0.072 0 0 0 0 0 1 0 "
         in="fbSourceGraphic"
         result="fbSourceGraphic" /><feColorMatrix
         result="fbSourceGraphicAlpha"
         in="fbSourceGraphic"
         values="0 0 0 -1 0 0 0 0 -1 0 0 0 0 -1 0 0 0 0 1 0"
         id="feColorMatrix10" /><feColorMatrix
         id="feColorMatrix11"
         values="0.21 0.72 0.072 0 0 0.21 0.72 0.072 0 0 0.21 0.72 0.072 0 0 0 0 0 1 0 "
         in="fbSourceGraphic" /></filter><filter
       style="color-interpolation-filters:sRGB"
       inkscape:label="Greyscale"
       id="filter3-0"
       x="0"
       y="0"
       width="1"
       height="1"><feColorMatrix
         values="0.21 0.72 0.072 0 0 0.21 0.72 0.072 0 0 0.21 0.72 0.072 0 0 0 0 0 1 0 "
         id="feColorMatrix3-9" /></filter><filter
       style="color-interpolation-filters:sRGB"
       inkscape:label="Greyscale"
       id="filter4"
       x="0"
       y="0"
       width="1"
       height="1"><feColorMatrix
         values="0.21 0.72 0.072 0 0 0.21 0.72 0.072 0 0 0.21 0.72 0.072 0 0 0 0 0 1 0 "
         id="feColorMatrix4-3" /></filter><filter
       style="color-interpolation-filters:sRGB"
       inkscape:label="Greyscale"
       id="filter5"
       x="0"
       y="0"
       width="1"
       height="1"><feColorMatrix
         values="0.21 0.72 0.072 0 0 0.21 0.72 0.072 0 0 0.21 0.72 0.072 0 0 0 0 0 1 0 "
         id="feColorMatrix5-6" /></filter><filter
       style="color-interpolation-filters:sRGB"
       inkscape:label="Greyscale"
       id="filter2-61"
       x="0"
       y="0"
       width="1"
       height="1"><feColorMatrix
         values="0.21 0.72 0.072 0 0 0.21 0.72 0.072 0 0 0.21 0.72 0.072 0 0 0 0 0 1 0 "
         id="feColorMatrix2-8" /></filter><filter
       style="color-interpolation-filters:sRGB"
       inkscape:label="Greyscale"
       id="filter3-7"
       x="0"
       y="0"
       width="1"
       height="1"><feColorMatrix
         values="0.21 0.72 0.072 0 0 0.21 0.72 0.072 0 0 0.21 0.72 0.072 0 0 0 0 0 1 0 "
         id="feColorMatrix3-92" /></filter><filter
       style="color-interpolation-filters:sRGB"
       inkscape:label="Greyscale"
       id="filter4-0"
       x="0"
       y="0"
       width="1"
       height="1"><feColorMatrix
         values="0.21 0.72 0.072 0 0 0.21 0.72 0.072 0 0 0.21 0.72 0.072 0 0 0 0 0 1 0 "
         id="feColorMatrix4-2" /></filter><filter
       style="color-interpolation-filters:sRGB"
       inkscape:label="Greyscale"
       id="filter2-2"
       x="0"
       y="0"
       width="1"
       height="1"><feColorMatrix
         values="0.21 0.72 0.072 0 0 0.21 0.72 0.072 0 0 0.21 0.72 0.072 0 0 0 0 0 1 0 "
         id="feColorMatrix2-28" /></filter><filter
       style="color-interpolation-filters:sRGB"
       inkscape:label="Greyscale"
       id="filter3-9"
       x="0"
       y="0"
       width="1"
       height="1"><feColorMatrix
         values="0.21 0.72 0.072 0 0 0.21 0.72 0.072 0 0 0.21 0.72 0.072 0 0 0 0 0 1 0 "
         id="feColorMatrix3-7" /></filter><filter
       style="color-interpolation-filters:sRGB"
       inkscape:label="Greyscale"
       id="filter4-3"
       x="0"
       y="0"
       width="1"
       height="1"><feColorMatrix
         values="0.21 0.72 0.072 0 0 0.21 0.72 0.072 0 0 0.21 0.72 0.072 0 0 0 0 0 1 0 "
         id="feColorMatrix4-6" /></filter><filter
       style="color-interpolation-filters:sRGB"
       inkscape:label="Greyscale"
       id="filter2-1"
       x="0"
       y="0"
       width="1"
       height="1"><feColorMatrix
         values="0.21 0.72 0.072 0 0 0.21 0.72 0.072 0 0 0.21 0.72 0.072 0 0 0 0 0 1 0 "
         id="feColorMatrix2-9" /></filter><filter
       style="color-interpolation-filters:sRGB"
       inkscape:label="Greyscale"
       id="filter3-4"
       x="0"
       y="0"
       width="1"
       height="1"><feColorMatrix
         values="0.21 0.72 0.072 0 0 0.21 0.72 0.072 0 0 0.21 0.72 0.072 0 0 0 0 0 1 0 "
         id="feColorMatrix3-78" /></filter><filter
       style="color-interpolation-filters:sRGB"
       inkscape:label="Greyscale"
       id="filter4-4"
       x="0"
       y="0"
       width="1"
       height="1"><feColorMatrix
         values="0.21 0.72 0.072 0 0 0.21 0.72 0.072 0 0 0.21 0.72 0.072 0 0 0 0 0 1 0 "
         id="feColorMatrix4-5" /></filter></defs><g
     inkscape:label="Layer 1"
     inkscape:groupmode="layer"
     id="layer1"
     transform="translate(-7.5359395,-3.2232057)"><path
       fill="#66757f"
       d="m 58.744585,99.430306 1.423912,-1.423912 c 11.801518,-1.587408 23.695187,3.478026 30.823664,12.966806 v 1.8163 c 0,0.79668 0.645071,1.44472 1.44472,1.44472 0.796677,0 1.444721,-0.64506 1.444721,-1.44472 v -1.89359 c 7.125508,-9.53039 18.953778,-14.524488 30.782048,-12.934106 l 1.42391,1.423912 c 0.17538,0.175387 0.38645,0.276457 0.60939,0.341856 l 0.0862,0.01783 c 0.4697,0.109995 0.98099,0.006 1.34663,-0.359692 0.36564,-0.36564 0.46969,-0.876941 0.35969,-1.346622 l -0.0179,-0.08621 c -0.0654,-0.222952 -0.16648,-0.434012 -0.34188,-0.6094 l -1.42389,-1.423911 c -1.5904,-11.828272 3.4037,-23.656543 12.9341,-30.782044 h 1.89061 c 0.79668,0 1.44473,-0.64507 1.44473,-1.444719 0,-0.796677 -0.64508,-1.44472 -1.44473,-1.44472 h -1.81333 C 130.22553,55.11665 125.16305,43.225951 126.75046,31.424434 l 1.42392,-1.423912 c 0.5648,-0.564807 0.5648,-1.477418 0,-2.042227 -0.19619,-0.196195 -0.43699,-0.297268 -0.68668,-0.356721 -0.47266,-0.112963 -0.98694,-0.01184 -1.35555,0.356721 l -1.4239,1.423912 c -11.80153,1.587408 -23.6952,-3.47803 -30.823676,-12.966805 v -1.813333 c 0,-0.796677 -0.645071,-1.44472 -1.44472,-1.44472 -0.796677,0 -1.44472,0.645071 -1.44472,1.44472 v 1.893594 c -7.128476,9.533368 -18.956749,14.524488 -30.78502,12.934106 l -1.423912,-1.42391 c -0.175388,-0.175387 -0.386447,-0.27646 -0.609398,-0.341857 l -0.08621,-0.01783 c -0.469682,-0.109995 -0.978009,-0.006 -1.346621,0.359694 -0.36564,0.365639 -0.469684,0.876938 -0.359695,1.346621 l 0.01785,0.08621 c 0.0654,0.222951 0.166468,0.434012 0.341855,0.609399 l 1.423913,1.42391 C 59.758282,43.300273 54.76419,55.128545 45.233795,62.254047 h -1.890621 c -0.799649,0 -1.44472,0.645068 -1.44472,1.441745 0,0.796677 0.645071,1.44472 1.44472,1.44472 h 1.816305 c 9.491748,7.131447 14.554215,19.022144 12.966807,30.823663 l -1.423913,1.423909 c -0.368611,0.368612 -0.472654,0.882887 -0.35672,1.355541 0.05945,0.249705 0.163497,0.49049 0.35672,0.686689 0.564809,0.564807 1.47742,0.564807 2.042228,0 z m 2.556502,-64.825113 6.557718,6.55772 c 0.306186,4.0577 -0.335911,8.157018 -1.961964,12.012578 -1.465528,3.478027 -3.72179,6.590419 -6.418005,9.075574 h -9.812798 c 0.359694,-0.326994 0.805594,-0.704524 1.141506,-1.040435 6.991732,-6.991729 10.823507,-16.664814 10.493543,-26.605437 z m 35.963418,24.289724 c 0.163497,1.750903 0.769919,3.418575 1.774689,4.863295 -0.46374,0.677769 -0.87397,1.394185 -1.16826,2.184916 -0.31808,0.856129 -0.472659,1.736041 -0.555894,2.621899 -0.879912,0.08323 -1.753877,0.237813 -2.604063,0.552916 -0.781814,0.291323 -1.492282,0.69858 -2.164106,1.156371 -0.71047,-0.499409 -1.465529,-0.939366 -2.297879,-1.248522 -0.853156,-0.318078 -1.730095,-0.472656 -2.61298,-0.555891 -0.160523,-1.724151 -0.752087,-3.379932 -1.733069,-4.806815 0.463736,-0.67777 0.876939,-1.394184 1.168261,-2.184916 0.315104,-0.850184 0.472655,-1.72415 0.552916,-2.604063 0.885858,-0.08026 1.76577,-0.237813 2.6219,-0.555891 0.78776,-0.291321 1.504174,-0.70155 2.181943,-1.165288 1.438775,0.986929 3.097528,1.581463 4.836542,1.741989 z m -13.891311,6.245588 c 0.169442,0.231868 0.353748,0.454819 0.493464,0.707497 0.478601,0.850183 0.772895,1.786578 0.879913,2.758642 0.02674,0.243759 0,0.493464 0,0.740195 L 80.15676,73.936648 C 79.877328,72.604892 79.529525,71.279078 79.047953,69.98002 78.4118,68.270731 77.603233,66.662515 76.663866,65.143478 h 6.709328 z m 3.460196,6.200999 c 0.217006,0.0029 0.434009,-0.02674 0.653988,0 0.591563,0.0654 1.180151,0.175387 1.753878,0.389421 0.401312,0.148628 0.775869,0.341858 1.135561,0.552916 0.219979,0.127823 0.41023,0.297268 0.615344,0.445901 v 6.739054 C 89.476097,78.532404 87.86491,77.720862 86.155621,77.08471 84.85656,76.603139 83.530745,76.255335 82.198987,75.975904 Z m 7.045238,8.234309 v -6.682574 c 0.267542,-0.202141 0.529137,-0.410229 0.820458,-0.570752 0.847213,-0.475628 1.783604,-0.769923 2.752698,-0.879912 0.22592,-0.02674 0.45779,0.0029 0.68669,0 l 4.574946,4.574947 c -1.33176,0.279431 -2.65758,0.627233 -3.956636,1.108807 -1.68253,0.624262 -3.376955,1.527954 -4.878156,2.449484 z m 6.310982,-10.166547 c 0.003,-0.237815 -0.0267,-0.472655 0,-0.71047 0.0654,-0.591562 0.17836,-1.180151 0.38942,-1.753878 0.13377,-0.356721 0.31214,-0.686686 0.49348,-1.013682 0.15755,-0.282404 0.35969,-0.535081 0.54994,-0.790731 h 6.69149 c -0.92153,1.501201 -1.82522,3.195626 -2.45246,4.878159 -0.48157,1.299058 -0.82936,2.624872 -1.1088,3.956628 z m 1.3288,-7.155227 c -0.16052,-0.219979 -0.33591,-0.428065 -0.47266,-0.662908 -0.49942,-0.868021 -0.80263,-1.828195 -0.91559,-2.824039 -0.0267,-0.237815 0,-0.481574 0,-0.722361 l 4.5809,-4.580892 c 0.27944,1.331759 0.62723,2.65757 1.10881,3.956631 0.63616,1.709286 1.44472,3.317505 2.38408,4.83654 h -6.68554 z m -3.451286,-6.227754 c -0.22592,-0.0029 -0.45184,0.02377 -0.674794,0 -0.983956,-0.107017 -1.929267,-0.404283 -2.788369,-0.88883 -0.255651,-0.142682 -0.484546,-0.329967 -0.722359,-0.505354 V 47.92872 c 1.516064,0.936392 3.127253,1.747932 4.836542,2.384086 1.299056,0.481571 2.624876,0.829375 3.956636,1.108806 z m -7.074963,-8.210526 v 6.783642 c -0.246732,0.181332 -0.484546,0.371585 -0.752086,0.520219 -0.321048,0.178359 -0.64507,0.353747 -0.995847,0.484545 -0.573725,0.214032 -1.162315,0.324021 -1.753877,0.389421 -0.237815,0.02676 -0.472655,-0.0029 -0.710469,0 l -4.622511,-4.62251 c 1.331756,-0.279431 2.65757,-0.627234 3.95663,-1.108807 1.682535,-0.62129 3.376961,-1.52201 4.87816,-2.44651 z m -6.24559,10.231946 c -0.0029,0.228894 0.02377,0.457791 0,0.686686 -0.109996,0.972065 -0.404285,1.911429 -0.882887,2.761615 -0.15161,0.267542 -0.344829,0.508326 -0.529134,0.758033 h -6.777698 c 0.921528,-1.501202 1.825221,-3.195626 2.452456,-4.87816 0.481572,-1.299059 0.829376,-2.62487 1.108807,-3.95663 z m -8.403753,12.934106 c 0.662907,1.783604 1.082054,3.6118 1.313923,5.451885 l -1.843058,1.843058 -4.976257,4.976255 C 70.715545,79.789846 69.990212,76.341542 68.604948,73.053765 67.365341,70.110817 65.661999,67.465138 63.60788,65.140505 h 9.583903 c 1.290141,1.774687 2.363277,3.727734 3.151035,5.841306 z m 1.513092,9.33717 1.843059,-1.843058 c 1.840085,0.231868 3.671253,0.651015 5.451888,1.313923 2.113571,0.784785 4.066617,1.85792 5.841304,3.151034 v 9.583904 C 88.667529,90.470665 86.018877,88.76435 83.078898,87.527716 79.791122,86.142451 76.342818,85.417118 72.879652,85.295238 Z m 16.022718,12.306872 v -9.569039 c 1.756852,-1.272305 3.802056,-2.452457 5.882926,-3.225352 1.783616,-0.662906 3.611806,-1.082053 5.451886,-1.313923 l 6.81932,6.819318 c -3.46316,0.121875 -6.91147,0.847211 -10.19925,2.232476 -2.907276,1.227716 -5.645113,3.032129 -7.954882,5.05652 z m 15.223082,-14.304509 -1.84306,-1.843058 c 0.23187,-1.840086 0.65101,-3.671253 1.31391,-5.451886 0.7729,-2.080872 1.95306,-4.126072 3.22536,-5.882922 h 9.56903 c -2.02736,2.309768 -3.83178,5.047601 -5.05651,7.957851 -1.38527,3.287776 -2.1106,6.736079 -2.23248,10.199243 z m 2.58027,-16.067305 c -1.29311,-1.774687 -2.36625,-3.727735 -3.15103,-5.841306 -0.6629,-1.783606 -1.08205,-3.611799 -1.31392,-5.451886 l 1.84306,-1.843058 4.97624,-4.976256 c 0.12186,3.463165 0.84721,6.911467 2.23248,10.199245 1.23961,2.942949 2.94296,5.588629 4.99709,7.913261 z m -4.6671,-15.178477 -1.84306,1.843059 c -1.84008,-0.23187 -3.67125,-0.651017 -5.451886,-1.313923 -2.11357,-0.784786 -4.066619,-1.857922 -5.841306,-3.151034 v -9.586877 c 2.324631,2.054118 4.973286,3.760435 7.913262,4.997066 3.28778,1.385267 6.73609,2.1106 10.19926,2.232479 z M 90.992161,34.765718 v 9.569038 c -1.756851,1.272306 -3.802051,2.452457 -5.882923,3.225352 -1.783608,0.662906 -3.611802,1.082054 -5.451888,1.313923 l -1.843057,-1.84306 -4.976257,-4.976255 c 3.463164,-0.121876 6.911467,-0.847213 10.199246,-2.23248 2.907277,-1.224741 5.645112,-3.029154 7.954879,-5.056518 z m -13.377037,16.15054 c -0.23187,1.840085 -0.651016,3.671254 -1.313924,5.451884 -0.772894,2.080873 -1.953046,4.126072 -3.22535,5.882923 h -9.56904 c 2.027365,-2.309767 3.831777,-5.047601 5.05652,-7.957849 1.385266,-3.287778 2.110599,-6.736079 2.232479,-10.199246 z M 50.849162,66.139324 C 50.498385,65.788548 50.108967,65.476417 49.7463,65.140505 h 9.821717 c 2.714051,2.494075 4.901941,5.538093 6.376387,9.033957 1.62308,3.85556 2.265179,7.954878 1.961964,12.012578 l -2.910247,2.907277 -3.653417,3.653415 C 61.672669,82.804136 57.843865,73.131054 50.849162,66.139324 Z M 89.993343,105.2835 C 83.00161,98.291772 73.325554,94.459994 63.38493,94.78996 l 3.653418,-3.653416 2.904303,-2.904304 c 4.057699,-0.306186 8.157019,0.335912 12.012577,1.961965 3.492897,1.474448 6.539887,3.659364 9.033961,6.376387 v 9.821718 c -0.33294,-0.37158 -0.64507,-0.76101 -0.995846,-1.10881 z m 4.925721,0.0416 c -0.335912,0.33591 -0.713442,0.78478 -1.040436,1.14151 v -9.812803 c 2.488129,-2.699187 5.597546,-4.952475 9.075582,-6.418004 3.85556,-1.623081 7.95488,-2.265178 12.01257,-1.961966 l 6.55774,6.557721 c -9.93766,-0.329967 -19.61075,3.501811 -26.605456,10.493542 z m 28.650636,-12.535769 -3.65342,-3.653417 -2.90429,-2.904303 c -0.30619,-4.057701 0.33591,-8.15702 1.96196,-12.012578 1.46553,-3.47803 3.72179,-6.590419 6.41801,-9.075575 h 9.81278 c -0.35967,0.326994 -0.80557,0.704523 -1.1415,1.040436 -6.99171,6.99173 -10.8235,16.664813 -10.49354,26.605437 z m 10.45194,-31.534133 c 0.35077,0.350777 0.74019,0.662908 1.10284,0.99882 h -9.82171 c -2.71405,-2.494074 -4.90194,-5.538093 -6.37638,-9.033957 -1.62309,-3.855559 -2.26518,-7.954878 -1.96195,-12.012578 l 2.90428,-2.904303 3.65342,-3.653417 c -0.32401,9.937649 3.50776,19.613706 10.4995,26.605435 z M 94.877448,22.111041 c 6.991742,6.991732 16.667792,10.823508 26.608412,10.493542 l -3.65342,3.653417 -2.9043,2.904302 c -4.05769,0.306185 -8.15702,-0.335912 -12.01257,-1.961965 -3.492906,-1.474446 -6.539895,-3.659361 -9.033968,-6.376387 v -9.81577 c 0.332938,0.362666 0.64507,0.755058 0.995846,1.102861 z m -4.925723,-0.04162 c 0.335911,-0.33591 0.713443,-0.784785 1.040436,-1.141507 v 9.8128 c -2.488128,2.699188 -5.597546,4.952475 -9.075577,6.418004 -3.855559,1.623079 -7.954878,2.265179 -12.012578,1.961965 l -2.907277,-2.9043 -3.653416,-3.653418 c 9.940624,0.329968 19.613705,-3.501811 26.608412,-10.493542 z"
       id="path1"
       style="stroke-width:2.97267" /></g></svg>
