<?xml version="1.0" encoding="UTF-8" standalone="no"?>
<!-- Created with Inkscape (http://www.inkscape.org/) -->

<svg
   width="168.78688"
   height="120.66582"
   viewBox="0 0 168.78688 120.66582"
   version="1.1"
   id="svg1"
   xml:space="preserve"
   inkscape:version="1.4.2 (ebf0e940d0, 2025-05-08)"
   sodipodi:docname="support_tickets_cover.svg"
   xmlns:inkscape="http://www.inkscape.org/namespaces/inkscape"
   xmlns:sodipodi="http://sodipodi.sourceforge.net/DTD/sodipodi-0.dtd"
   xmlns="http://www.w3.org/2000/svg"
   xmlns:svg="http://www.w3.org/2000/svg"><sodipodi:namedview
     id="namedview1"
     pagecolor="#ffffff"
     bordercolor="#666666"
     borderopacity="1.0"
     inkscape:showpageshadow="2"
     inkscape:pageopacity="0.0"
     inkscape:pagecheckerboard="0"
     inkscape:deskcolor="#d1d1d1"
     inkscape:document-units="px"
     inkscape:zoom="4.4055556"
     inkscape:cx="82.509457"
     inkscape:cy="86.822193"
     inkscape:window-width="1920"
     inkscape:window-height="1011"
     inkscape:window-x="0"
     inkscape:window-y="32"
     inkscape:window-maximized="1"
     inkscape:current-layer="layer1" /><defs
     id="defs1"><filter
       style="color-interpolation-filters:sRGB"
       inkscape:label="Greyscale"
       id="filter3"
       x="0"
       y="0"
       width="1"
       height="1"><feColorMatrix
         values="0.21 0.72 0.072 0 0 0.21 0.72 0.072 0 0 0.21 0.72 0.072 0 0 0 0 0 1 0 "
         id="feColorMatrix3" /></filter><filter
       style="color-interpolation-filters:sRGB"
       inkscape:label="Greyscale"
       id="filter1"
       x="0"
       y="0"
       width="1"
       height="1"><feColorMatrix
         values="0.21 0.72 0.072 0 0 0.21 0.72 0.072 0 0 0.21 0.72 0.072 0 0 0 0 0 1 0 "
         id="feColorMatrix1" /></filter><filter
       style="color-interpolation-filters:sRGB"
       inkscape:label="Greyscale"
       id="filter2"
       x="0"
       y="0"
       width="1"
       height="1"><feColorMatrix
         values="0.21 0.72 0.072 0 0 0.21 0.72 0.072 0 0 0.21 0.72 0.072 0 0 0 0 0 1 0 "
         id="feColorMatrix2" /></filter><filter
       style="color-interpolation-filters:sRGB"
       inkscape:label="Greyscale"
       id="filter6"
       x="0"
       y="0"
       width="1"
       height="1"><feColorMatrix
         values="0.21 0.72 0.072 0 0 0.21 0.72 0.072 0 0 0.21 0.72 0.072 0 0 0 0 0 1 0 "
         id="feColorMatrix6" /></filter><filter
       style="color-interpolation-filters:sRGB"
       inkscape:label="Greyscale"
       id="filter1-5"
       x="0"
       y="0"
       width="1"
       height="1"><feColorMatrix
         values="0.21 0.72 0.072 0 0 0.21 0.72 0.072 0 0 0.21 0.72 0.072 0 0 0 0 0 1 0 "
         id="feColorMatrix1-3"
         result="fbSourceGraphic" /><feColorMatrix
         result="fbSourceGraphicAlpha"
         in="fbSourceGraphic"
         values="0 0 0 -1 0 0 0 0 -1 0 0 0 0 -1 0 0 0 0 1 0"
         id="feColorMatrix3-5" /><feColorMatrix
         id="feColorMatrix4"
         values="0.21 0.72 0.072 0 0 0.21 0.72 0.072 0 0 0.21 0.72 0.072 0 0 0 0 0 1 0 "
         in="fbSourceGraphic"
         result="fbSourceGraphic" /><feColorMatrix
         result="fbSourceGraphicAlpha"
         in="fbSourceGraphic"
         values="0 0 0 -1 0 0 0 0 -1 0 0 0 0 -1 0 0 0 0 1 0"
         id="feColorMatrix8" /><feColorMatrix
         id="feColorMatrix9"
         values="0.21 0.72 0.072 0 0 0.21 0.72 0.072 0 0 0.21 0.72 0.072 0 0 0 0 0 1 0 "
         in="fbSourceGraphic" /></filter><filter
       style="color-interpolation-filters:sRGB"
       inkscape:label="Greyscale"
       id="filter2-6"
       x="0"
       y="0"
       width="1"
       height="1"><feColorMatrix
         values="0.21 0.72 0.072 0 0 0.21 0.72 0.072 0 0 0.21 0.72 0.072 0 0 0 0 0 1 0 "
         id="feColorMatrix2-2"
         result="fbSourceGraphic" /><feColorMatrix
         result="fbSourceGraphicAlpha"
         in="fbSourceGraphic"
         values="0 0 0 -1 0 0 0 0 -1 0 0 0 0 -1 0 0 0 0 1 0"
         id="feColorMatrix5" /><feColorMatrix
         id="feColorMatrix7"
         values="0.21 0.72 0.072 0 0 0.21 0.72 0.072 0 0 0.21 0.72 0.072 0 0 0 0 0 1 0 "
         in="fbSourceGraphic"
         result="fbSourceGraphic" /><feColorMatrix
         result="fbSourceGraphicAlpha"
         in="fbSourceGraphic"
         values="0 0 0 -1 0 0 0 0 -1 0 0 0 0 -1 0 0 0 0 1 0"
         id="feColorMatrix10" /><feColorMatrix
         id="feColorMatrix11"
         values="0.21 0.72 0.072 0 0 0.21 0.72 0.072 0 0 0.21 0.72 0.072 0 0 0 0 0 1 0 "
         in="fbSourceGraphic" /></filter><filter
       style="color-interpolation-filters:sRGB"
       inkscape:label="Greyscale"
       id="filter3-0"
       x="0"
       y="0"
       width="1"
       height="1"><feColorMatrix
         values="0.21 0.72 0.072 0 0 0.21 0.72 0.072 0 0 0.21 0.72 0.072 0 0 0 0 0 1 0 "
         id="feColorMatrix3-9" /></filter><filter
       style="color-interpolation-filters:sRGB"
       inkscape:label="Greyscale"
       id="filter4"
       x="0"
       y="0"
       width="1"
       height="1"><feColorMatrix
         values="0.21 0.72 0.072 0 0 0.21 0.72 0.072 0 0 0.21 0.72 0.072 0 0 0 0 0 1 0 "
         id="feColorMatrix4-3" /></filter><filter
       style="color-interpolation-filters:sRGB"
       inkscape:label="Greyscale"
       id="filter5"
       x="0"
       y="0"
       width="1"
       height="1"><feColorMatrix
         values="0.21 0.72 0.072 0 0 0.21 0.72 0.072 0 0 0.21 0.72 0.072 0 0 0 0 0 1 0 "
         id="feColorMatrix5-6" /></filter><filter
       style="color-interpolation-filters:sRGB"
       inkscape:label="Greyscale"
       id="filter2-61"
       x="0"
       y="0"
       width="1"
       height="1"><feColorMatrix
         values="0.21 0.72 0.072 0 0 0.21 0.72 0.072 0 0 0.21 0.72 0.072 0 0 0 0 0 1 0 "
         id="feColorMatrix2-8" /></filter><filter
       style="color-interpolation-filters:sRGB"
       inkscape:label="Greyscale"
       id="filter3-7"
       x="0"
       y="0"
       width="1"
       height="1"><feColorMatrix
         values="0.21 0.72 0.072 0 0 0.21 0.72 0.072 0 0 0.21 0.72 0.072 0 0 0 0 0 1 0 "
         id="feColorMatrix3-92" /></filter><filter
       style="color-interpolation-filters:sRGB"
       inkscape:label="Greyscale"
       id="filter4-0"
       x="0"
       y="0"
       width="1"
       height="1"><feColorMatrix
         values="0.21 0.72 0.072 0 0 0.21 0.72 0.072 0 0 0.21 0.72 0.072 0 0 0 0 0 1 0 "
         id="feColorMatrix4-2" /></filter><filter
       style="color-interpolation-filters:sRGB"
       inkscape:label="Greyscale"
       id="filter2-2"
       x="0"
       y="0"
       width="1"
       height="1"><feColorMatrix
         values="0.21 0.72 0.072 0 0 0.21 0.72 0.072 0 0 0.21 0.72 0.072 0 0 0 0 0 1 0 "
         id="feColorMatrix2-28" /></filter><filter
       style="color-interpolation-filters:sRGB"
       inkscape:label="Greyscale"
       id="filter3-9"
       x="0"
       y="0"
       width="1"
       height="1"><feColorMatrix
         values="0.21 0.72 0.072 0 0 0.21 0.72 0.072 0 0 0.21 0.72 0.072 0 0 0 0 0 1 0 "
         id="feColorMatrix3-7" /></filter><filter
       style="color-interpolation-filters:sRGB"
       inkscape:label="Greyscale"
       id="filter4-3"
       x="0"
       y="0"
       width="1"
       height="1"><feColorMatrix
         values="0.21 0.72 0.072 0 0 0.21 0.72 0.072 0 0 0.21 0.72 0.072 0 0 0 0 0 1 0 "
         id="feColorMatrix4-6" /></filter><filter
       style="color-interpolation-filters:sRGB"
       inkscape:label="Greyscale"
       id="filter2-1"
       x="0"
       y="0"
       width="1"
       height="1"><feColorMatrix
         values="0.21 0.72 0.072 0 0 0.21 0.72 0.072 0 0 0.21 0.72 0.072 0 0 0 0 0 1 0 "
         id="feColorMatrix2-9" /></filter><filter
       style="color-interpolation-filters:sRGB"
       inkscape:label="Greyscale"
       id="filter3-4"
       x="0"
       y="0"
       width="1"
       height="1"><feColorMatrix
         values="0.21 0.72 0.072 0 0 0.21 0.72 0.072 0 0 0.21 0.72 0.072 0 0 0 0 0 1 0 "
         id="feColorMatrix3-78" /></filter><filter
       style="color-interpolation-filters:sRGB"
       inkscape:label="Greyscale"
       id="filter4-4"
       x="0"
       y="0"
       width="1"
       height="1"><feColorMatrix
         values="0.21 0.72 0.072 0 0 0.21 0.72 0.072 0 0 0.21 0.72 0.072 0 0 0 0 0 1 0 "
         id="feColorMatrix4-5" /></filter></defs><g
     inkscape:label="Layer 1"
     inkscape:groupmode="layer"
     id="layer1"
     transform="translate(-7.5359395,-3.2232057)"><path
       fill="#ccd6dd"
       d="m 136.2989,104.3564 c -0.24925,5.45219 -4.87181,9.67059 -10.32399,9.42136 L 56.866159,110.6185 c -5.452187,-0.24923 -9.670599,-4.8718 -9.421357,-10.32399 L 49.47575,55.867453 c 0.249242,-5.452186 4.871812,-9.670598 10.323999,-9.421355 l 69.108751,3.159248 c 5.45218,0.249245 9.6706,4.871812 9.42135,10.323999 z"
       id="path1"
       style="stroke-width:2.47074" /><path
       fill="#99aab5"
       d="M 77.995965,78.530894 48.797122,105.17684 c -0.0698,0.0661 -0.09844,0.15132 -0.15836,0.21785 0.774865,1.44521 1.891408,2.66613 3.25979,3.57209 0.07417,-0.0534 0.159219,-0.0743 0.228905,-0.13793 L 81.328882,82.18054 c 1.006703,-0.92105 1.078009,-2.480933 0.15954,-3.489991 -0.923397,-1.009284 -2.483283,-1.080592 -3.492457,-0.159655 m 56.648625,30.795476 c -0.0486,-0.0716 -0.0743,-0.15922 -0.13793,-0.22891 L 107.86329,79.896254 c -0.92341,-1.009283 -2.4833,-1.080592 -3.49246,-0.159655 -1.00929,0.923406 -1.08059,2.483289 -0.15954,3.489991 l 26.64584,29.20132 c 0.0612,0.0671 0.14885,0.0983 0.21537,0.15824 1.44768,-0.77475 2.66861,-1.8913 3.57209,-3.25978"
       id="path2"
       style="stroke-width:2.47074" /><path
       fill="#99aab5"
       d="M 128.9085,49.605346 59.799749,46.446098 C 54.347562,46.196855 49.724992,50.415267 49.47575,55.867453 l -0.116215,2.542214 34.221976,37.417789 c 4.461006,4.888414 12.097521,5.237514 16.990869,0.776726 l 37.64362,-34.184454 0.11385,-2.490383 c 0.24925,-5.452187 -3.96917,-10.074754 -9.42135,-10.323999 z"
       id="path3"
       style="stroke-width:2.47074" /><path
       fill="#e1e8ed"
       d="M 128.9085,49.605346 59.799749,46.446098 c -3.919453,-0.179175 -7.384016,1.972532 -9.129759,5.209458 l 34.778824,38.113518 c 3.679037,4.031521 9.933381,4.317432 13.962434,0.638282 L 137.52487,55.626058 c -1.44313,-3.382706 -4.69445,-5.841423 -8.61637,-6.020712 z"
       id="path4"
       style="stroke-width:2.47074" /><path
       fill="#55acee"
       d="m 116.20518,41.604644 -11.63989,-0.532108 0.56416,-12.340848 c 0.12455,-2.724856 -1.98336,-5.03732 -4.71069,-5.161997 l -9.872671,-0.451322 c -2.724866,-0.124564 -5.037442,1.985819 -5.162009,4.710679 L 84.819928,40.169894 72.844373,39.62244 c -3.01857,-0.137991 -3.809682,1.369199 -1.774781,3.601652 L 89.589631,63.51849 c 2.037357,2.232565 5.529821,2.39222 7.762387,0.354852 l 20.294412,-18.52003 c 2.23008,-2.03748 1.57979,-3.610565 -1.44125,-3.748668 z"
       id="path5"
       style="stroke-width:2.47074" /><path
       fill="#ccd6dd"
       d="m 43.111699,34.764005 c -1.536814,0.619559 -3.284556,-0.123877 -3.904115,-1.66069 l -1.495615,-3.70987 c -0.619559,-1.536814 0.123876,-3.284555 1.66069,-3.904114 0.557019,-0.231029 5.190901,-3.170891 3.695285,-6.880761 -0.747808,-1.854935 -3.350551,-2.962062 -6.132953,-1.84035 -2.263948,0.912699 -2.962062,3.350551 -2.588158,4.278018 0.619559,1.536814 -0.123877,3.284555 -1.66069,3.904114 -1.536814,0.619559 -3.284556,-0.123877 -3.904115,-1.66069 -1.823903,-4.524186 0.882666,-10.059687 5.909539,-12.086247 7.41974,-2.9912315 12.438835,1.435167 14.315085,6.089199 1.549832,3.844352 0.622517,7.633948 -2.612625,10.670855 -0.70348,0.662055 -1.440685,1.213712 -2.120052,1.660108 l 0.498414,1.236314 c 0.619559,1.536813 -0.123877,3.284555 -1.66069,3.904114 z"
       id="path1-2" /><circle
       fill="#ccd6dd"
       cx="26.986298"
       cy="53.362114"
       r="3"
       id="circle1"
       transform="rotate(-21.956587)" /><path
       fill="#ccd6dd"
       d="m 145.84274,35.990009 c -1.61921,-0.351873 -2.64639,-1.949442 -2.2945,-3.568644 l 0.84942,-3.908772 c 0.35187,-1.619208 1.94944,-2.64638 3.56864,-2.294507 0.59053,0.122188 6.07551,0.296947 6.92495,-3.611819 0.42471,-1.954386 -1.10497,-4.333487 -4.03655,-4.970556 -2.38532,-0.518364 -4.33348,1.10496 -4.54584,2.082149 -0.35187,1.619209 -1.94943,2.646386 -3.56864,2.294507 -1.61921,-0.351872 -2.64638,-1.949436 -2.29451,-3.568643 1.03588,-4.766742 6.38676,-7.822135 11.68314,-6.671164 7.81754,1.698852 9.47879,8.181484 8.41318,13.085035 -0.88021,4.050466 -3.77802,6.662672 -8.16094,7.354714 -0.95402,0.151874 -1.87384,0.193491 -2.68663,0.180598 l -0.28307,1.302594 c -0.35188,1.619208 -1.94945,2.64638 -3.56865,2.294508 z"
       id="path1-2-5" /><circle
       fill="#ccd6dd"
       cx="150.15912"
       cy="9.1984863"
       r="3"
       id="circle1-9"
       transform="rotate(12.26049)" /></g></svg>
